<svg width="687" height="329" viewBox="0 0 687 329" fill="none" xmlns="http://www.w3.org/2000/svg">
<path fill-rule="evenodd" clip-rule="evenodd" d="M0.231179 0.416992C0.00217907 0.645992 -0.0688181 46.771 0.0731819 102.917L0.333176 205H89.1132C185.832 205 184.24 204.914 194.314 210.679C196.96 212.193 220.028 234.392 250.314 264.57C278.639 292.793 303.023 316.822 304.501 317.966C305.979 319.11 310.068 321.394 313.589 323.041C326.701 329.177 321.217 328.964 466.117 328.983C614.157 329.002 606.943 329.331 618.016 322.048C625.838 316.902 681.439 260.826 684.208 255.29C686.562 250.584 686.891 244.775 685.152 238.616C684.142 235.038 671.031 221.518 584.913 135.245L485.837 35.99L457.073 64.74L428.31 93.491L503.812 168.998C545.338 210.527 579.314 245.066 579.314 245.752C579.314 247.429 365.834 247.583 356.802 245.913C344.789 243.692 345.239 244.076 287.814 187.038C231.724 131.326 231.198 130.867 217.607 125.734C211.901 123.579 210.842 123.541 147.064 123.226L82.3142 122.905V102.453V82H149.249C221.405 82 222.474 82.066 236.676 87.412C252.424 93.339 255.078 95.543 298.341 138.634C320.631 160.836 339.198 179 339.6 179C340.708 179 396.314 123.233 396.314 122.121C396.314 120.827 320.854 45.355 313.149 38.942C293.069 22.231 268.178 9.91799 242.314 3.89899C226.106 0.127987 221.755 0 109.818 0C49.7742 0 0.460179 0.186992 0.231179 0.416992Z" fill="black"/>
</svg>
