<svg width="119" height="25" viewBox="0 0 119 25" fill="none" xmlns="http://www.w3.org/2000/svg">
<path fill-rule="evenodd" clip-rule="evenodd" d="M29.8044 0.46776C26.4911 1.50316 23.5831 4.04847 21.9671 7.32835C21.0247 9.24044 20.9502 9.62924 20.9591 12.5866C20.9671 15.2342 21.0961 16.0663 21.7153 17.4532C22.1261 18.3732 22.5276 19.1263 22.6073 19.1263C22.7198 19.1263 38.5707 6.68302 41.6502 4.17754C41.9934 3.89869 41.7783 4.30947 41.1721 5.09088C40.5663 5.87229 37.1669 10.2462 33.6184 14.8107C30.0696 19.3752 27.2135 23.2532 27.2712 23.4285C27.5268 24.2038 30.5377 24.9776 33.3781 24.998C35.9671 25.0168 36.4566 24.9193 38.4053 23.9977C41.0182 22.7618 43.329 20.496 44.5855 17.937C45.4103 16.2569 45.4881 15.797 45.4881 12.5933C45.4881 8.641 44.9998 7.12089 42.9125 4.57334C39.8646 0.854002 34.2226 -0.91309 29.8044 0.46776ZM0.394531 12.5984V24.6035L6.36982 24.4878C11.7603 24.3833 12.5 24.3014 13.9267 23.649C15.8637 22.7637 16.5504 22.1633 17.2754 20.7197C18.8864 17.5134 18.0728 14.1227 15.2862 12.4279C14.3652 11.868 14.3598 11.8495 15.0179 11.4974C16.0676 10.9355 17.0571 8.68179 17.0571 6.85255C17.0571 4.3885 15.966 2.73359 13.4605 1.39704C12.5102 0.890014 11.4608 0.78644 6.36982 0.697528L0.394531 0.592999V12.5984ZM49.4716 12.5933V24.5439H52.3397H55.2079V12.5933V0.642715H52.3397H49.4716V12.5933ZM60.9441 12.599V24.5553L68.6722 24.4699L76.4002 24.3845V21.9944V19.6043L71.5403 19.5163L66.6804 19.4284V10.0356V0.642715H63.8123H60.9441V12.599ZM79.6932 0.960124C79.6349 1.13476 79.6262 6.51252 79.6744 12.9107L79.7617 24.5439H87.4024H95.0431V21.9944V19.445H90.2629H85.4827V17.2142V14.9834H89.1609H92.8391L92.7461 12.5136L92.653 10.0438L89.0678 9.95365L85.4827 9.86347V7.80255V5.74163H89.9442H94.4058V3.19217V0.642715H87.1025C82.5374 0.642715 79.7598 0.761585 79.6932 0.960124ZM99.186 12.5691V24.5439H102.054H104.922V20.5604V16.5768H106.339H107.755L109.868 20.5604L111.981 24.5439H115.144C116.884 24.5439 118.307 24.4588 118.307 24.3546C118.307 24.1315 113.581 15.6195 113.178 15.1182C113.004 14.9015 113.265 14.5067 113.885 14.0484C114.426 13.6488 115.227 12.5382 115.665 11.5805C116.339 10.1079 116.444 9.47754 116.344 7.49183C116.243 5.50198 116.078 4.93505 115.26 3.76994C114.729 3.01403 113.656 2.03695 112.875 1.59876C111.52 0.838386 111.175 0.797275 105.321 0.698165L99.186 0.593957V12.5691ZM10.7335 6.45006C11.4104 7.41599 11.3566 8.48293 10.5924 9.24713C10.0965 9.743 9.53019 9.8845 8.0429 9.8845H6.13081V7.81306V5.74163H8.18408C9.9448 5.74163 10.3084 5.84265 10.7335 6.45006ZM109.747 6.35095C110.798 7.20183 110.814 9.55179 109.776 10.5897C109.18 11.1857 108.704 11.3135 107.067 11.3157L105.082 11.3186L104.99 8.5301L104.897 5.74163H106.946C108.488 5.74163 109.181 5.89237 109.747 6.35095ZM11.5251 15.5045C12.4015 16.6183 12.3595 17.7069 11.4034 18.6626C10.7211 19.3452 10.3349 19.445 8.37593 19.445H6.13081V17.0548V14.6647H8.49766C10.6752 14.6647 10.9177 14.732 11.5251 15.5045Z" fill="black"/>
</svg>
