<svg width="69" height="59" viewBox="0 0 69 59" fill="none" xmlns="http://www.w3.org/2000/svg">
<path fill-rule="evenodd" clip-rule="evenodd" d="M32.2508 0.657589C31.9602 0.771553 31.9558 0.796335 32.2087 0.89344C32.3872 0.961885 32.4914 1.19015 32.4914 1.51299C32.4914 1.96547 32.4349 2.02397 31.998 2.02397C31.419 2.02397 30.8056 2.69056 30.8056 3.31955C30.8056 4.29313 31.8503 5.26131 32.3557 4.7559C32.453 4.65862 32.6372 4.61934 32.7652 4.6684C32.8931 4.71746 33.2023 4.70633 33.4523 4.64362C33.79 4.55882 33.8473 4.49273 33.6754 4.38652C33.5161 4.28807 33.4242 3.77911 33.3809 2.75445C33.2822 0.426459 33.2054 0.283668 32.2508 0.657589ZM34.5079 0.767507C34.2417 1.08816 34.4381 1.5575 34.8089 1.48686C35.1795 1.41622 35.2935 0.751491 34.9571 0.622524C34.8199 0.569757 34.6178 0.634999 34.5079 0.767507ZM38.3415 0.950422C38.1235 1.1684 38.2204 1.64971 38.5043 1.75862C38.8597 1.895 39.1158 1.64735 39.0379 1.24308C38.976 0.921593 38.5495 0.742388 38.3415 0.950422ZM36.2003 1.62611C36.2003 1.77817 36.0674 2.00324 35.9053 2.12647C35.6298 2.33552 35.6294 2.35086 35.8988 2.35575C36.1509 2.36047 36.175 2.49551 36.0888 3.41901C35.9671 4.72167 36.0558 4.80934 37.6333 4.9469L38.8133 5.04974L38.8444 3.72297C38.8754 2.40295 38.8732 2.39587 38.4229 2.32995C37.9735 2.26421 37.9704 2.27061 37.9672 3.31871C37.9638 4.47925 37.812 4.75859 37.2627 4.61496C36.8048 4.49526 36.7489 4.326 36.8374 3.33051C36.895 2.68129 36.9692 2.52973 37.2288 2.52973C37.4048 2.52973 37.549 2.45386 37.549 2.36114C37.549 2.26842 37.4352 2.19256 37.2961 2.19256C37.1388 2.19256 37.0432 2.03341 37.0432 1.77109C37.0432 1.43392 36.9589 1.34963 36.6217 1.34963C36.3436 1.34963 36.2003 1.44353 36.2003 1.62611ZM34.093 2.19256C34.0356 2.28528 34.0692 2.36114 34.1673 2.36114C34.4315 2.36114 34.4008 4.50251 34.1351 4.60973C34.0193 4.65643 34.3037 4.6947 34.7673 4.6947C35.2309 4.6947 35.5155 4.65643 35.3995 4.60973C35.2575 4.55241 35.1888 4.11679 35.1888 3.27437V2.02397H34.693C34.4202 2.02397 34.1503 2.09984 34.093 2.19256ZM32.66 3.57344C32.66 4.267 32.6121 4.38416 32.3287 4.38416C31.6744 4.38416 31.3885 2.98238 31.932 2.43886C32.1979 2.173 32.2298 2.17435 32.4378 2.45892C32.56 2.62599 32.66 3.12753 32.66 3.57344ZM28.4359 2.67201C28.1903 2.87094 28.0905 3.08353 28.1591 3.26206C28.2926 3.61019 28.5984 3.62486 28.7035 3.28836C28.984 2.39031 28.9557 2.41897 29.216 2.77266C29.5609 3.24133 29.525 3.34383 28.8818 3.72331C28.2033 4.1237 28.0419 4.45109 28.2925 4.91908C28.4391 5.1932 28.5811 5.24007 29.0083 5.15595C29.3014 5.09812 29.7841 5.03103 30.0808 5.00675C30.7162 4.95483 30.9709 4.7591 30.6564 4.56472C30.5335 4.48869 30.3652 4.0647 30.2826 3.6225C30.2 3.1803 30.0469 2.71568 29.9426 2.58991C29.6723 2.26421 28.8867 2.30703 28.4359 2.67201ZM22.9663 3.06414C21.5501 3.67594 21.4681 3.74455 21.6123 4.19855C21.7699 4.69537 22.0068 4.6394 22.0701 4.09066C22.0998 3.83289 22.2416 3.60598 22.3905 3.57782C22.7728 3.5055 23.979 6.35391 23.7056 6.68333C23.6009 6.8096 23.5653 6.91294 23.6267 6.91294C23.8106 6.91294 25.0737 6.23911 25.0737 6.14099C25.0737 6.09092 25.0064 6.09176 24.9241 6.14251C24.842 6.19325 24.6992 6.14082 24.6072 6.02602C24.4307 5.80601 23.3878 3.37468 23.3878 3.18316C23.3878 2.89556 23.9156 2.92 24.3042 3.22565C24.5419 3.41278 24.7365 3.52725 24.7365 3.48021C24.7365 3.23846 24.3902 2.53141 24.2771 2.54203C24.2053 2.54895 23.6154 2.78379 22.9663 3.06414ZM39.9827 3.08623C39.3341 3.64424 39.2861 4.7564 39.8896 5.24513C40.8192 5.99786 42.1008 5.32301 42.1008 4.08071C42.1008 2.89505 40.8743 2.31933 39.9827 3.08623ZM26.6342 3.05959C26.5282 3.16563 26.2027 3.27116 25.9109 3.29409C25.3368 3.33927 24.7817 3.70982 25.2881 3.70982C25.6093 3.70982 26.1929 5.42214 25.986 5.75695C25.8974 5.90025 26.0196 5.92301 26.433 5.84023C27.0483 5.71717 27.5148 5.39568 27.078 5.39568C26.9138 5.39568 26.747 5.09846 26.6088 4.55916C26.3868 3.69263 26.5022 3.08758 26.7912 3.60395C27.1206 4.19265 27.7152 3.76461 27.4052 3.16192C27.2307 2.8229 26.9131 2.78075 26.6342 3.05959ZM41.3086 3.85902C41.2722 4.64817 40.8509 5.45603 40.5306 5.351C39.9535 5.16168 40.4515 2.949 41.0439 3.07089C41.2803 3.11961 41.3352 3.28297 41.3086 3.85902ZM42.8601 3.73714C42.982 4.22266 42.383 5.72998 42.0647 5.73875C41.7407 5.74768 42.6419 6.22562 42.9958 6.2327C43.1716 6.23607 43.2532 6.16173 43.1886 6.05703C43.026 5.79404 43.5858 4.43255 43.9073 4.30914C44.0574 4.25166 44.2549 4.2793 44.3465 4.37085C44.5549 4.57922 44.0118 6.08991 43.6519 6.30266C43.4545 6.41949 43.5181 6.50024 43.9503 6.68198C44.6729 6.98577 44.7111 6.97835 44.729 6.53363C44.7374 6.32509 44.8448 5.80567 44.9677 5.37949C45.2656 4.34724 45.1314 4.04699 44.3719 4.04699C44.0391 4.04699 43.8082 3.97973 43.8591 3.89763C43.9098 3.81536 43.8195 3.71016 43.6583 3.6638C43.497 3.61744 43.2286 3.52337 43.0615 3.45475C42.8056 3.34956 42.7741 3.39406 42.8601 3.73714ZM29.6255 4.30982C29.6255 4.56691 29.5287 4.72133 29.3674 4.72133C29.0152 4.72133 28.8672 4.267 29.1199 3.96236C29.3915 3.63514 29.6255 3.79597 29.6255 4.30982ZM46.0119 5.26081C45.7001 5.57269 45.7722 6.32104 46.1468 6.66006C46.5455 7.02084 46.5809 7.34553 46.236 7.47787C45.8875 7.61156 45.4736 7.14239 45.4666 6.60595L45.4605 6.15431L45.2196 6.57577C44.9347 7.07428 44.9008 7.31063 45.1353 7.16582C45.228 7.1085 45.3039 7.14003 45.3039 7.23578C45.3039 7.33171 45.5419 7.53317 45.8331 7.68371C46.2338 7.8909 46.4551 7.91484 46.7456 7.7825C47.3571 7.504 47.4221 6.97127 46.9295 6.27872C46.488 5.65833 46.4855 5.39568 46.9208 5.39568C47.1745 5.39568 47.516 6.05215 47.3815 6.28075C47.3406 6.3502 47.3751 6.40719 47.4584 6.40719C47.5418 6.40719 47.6964 6.21753 47.802 5.98572C47.9554 5.64889 47.9481 5.56426 47.7654 5.56426C47.6396 5.56426 47.4424 5.45047 47.3269 5.31138C47.0754 5.00827 46.2945 4.97826 46.0119 5.26081ZM19.7305 6.05939C19.6798 6.2536 19.5525 6.39555 19.4478 6.37448C19.1882 6.32256 18.4988 6.71789 18.4988 6.91884C18.4988 7.00836 18.589 7.06265 18.6991 7.03938C18.9898 6.97818 20.0208 8.55901 19.8984 8.87797C19.8286 9.05987 20.0159 8.99784 20.4964 8.67988C21.2038 8.21172 21.4042 7.97705 20.9469 8.15272C20.7827 8.2156 20.5205 7.99121 20.1791 7.4949C19.6636 6.74571 19.6284 6.18398 20.1225 6.59415C20.431 6.85006 20.7478 6.5778 20.6625 6.13003C20.5743 5.66811 19.8473 5.61298 19.7305 6.05939ZM50.4177 6.14234C50.5619 6.51778 48.8172 8.76367 48.3733 8.77429C48.1658 8.77918 48.2501 8.92214 48.6756 9.2873C49.1938 9.73169 49.2715 9.75579 49.3147 9.48505C49.3418 9.31562 49.5556 8.95198 49.7898 8.67702L50.2156 8.17733L50.1281 9.2964C50.0563 10.2143 50.092 10.4598 50.3274 10.6616C50.907 11.1586 50.9515 11.1099 50.9515 9.97833C50.9515 8.8719 50.9564 8.85993 51.4291 8.82284C52.329 8.75238 52.6636 8.06033 52.1511 7.32985C51.7828 6.80471 50.2758 5.77229 50.4177 6.14234ZM32.7488 6.73694C32.694 6.82562 32.5357 6.85478 32.3972 6.80151C32.2497 6.74486 31.9725 6.89119 31.7282 7.15469C31.4989 7.40218 31.3113 7.53216 31.3113 7.44348C31.3113 7.15436 29.8923 7.43657 29.647 7.77441C29.3663 8.16115 29.1197 8.18728 29.1197 7.83021C29.1197 7.68574 29.0401 7.61645 28.943 7.67663C28.6949 7.82988 28.8159 8.48938 29.1197 8.63959C29.3031 8.73012 29.28 8.75052 29.0354 8.71377C28.85 8.68595 28.7173 8.57266 28.7404 8.46241C28.7635 8.35199 28.608 8.26162 28.3948 8.26162C28.1815 8.26162 27.9231 8.17767 27.8204 8.075C27.6839 7.93845 27.5797 7.98919 27.4327 8.26381C27.2986 8.51416 27.2936 8.60115 27.417 8.52495C27.5291 8.45566 27.6024 8.54889 27.6024 8.76064C27.6024 9.05498 27.5283 9.09477 27.1388 9.0098C26.8082 8.93765 26.743 8.95619 26.9112 9.07437C27.1071 9.21177 27.0829 9.32169 26.7688 9.72022C26.4392 10.1383 26.426 10.2076 26.6681 10.2567C26.8768 10.2988 26.9003 10.3679 26.7625 10.5338C26.6617 10.6554 26.5908 10.8197 26.6049 10.8991C26.6968 11.4106 26.5677 11.5293 26.2922 11.1866L26.0009 10.8243L25.4951 11.3285L24.9894 11.8328L25.5529 11.5521C26.3475 11.1562 26.4373 11.388 25.7354 12.0228C24.8096 12.8596 24.2629 13.5296 24.6161 13.394C24.9391 13.2701 25.4614 13.6066 25.3147 13.844C25.264 13.9263 25.0086 13.9935 24.7471 13.9935C24.4858 13.9935 24.1776 14.1073 24.0621 14.2464C23.8902 14.4536 23.9018 14.4993 24.1259 14.4993C24.2762 14.4993 24.3993 14.5846 24.3993 14.6889C24.3993 14.8113 24.5858 14.8413 24.9256 14.7734C25.3828 14.6819 25.424 14.7017 25.2394 14.9241C25.0902 15.104 24.8628 15.1493 24.4748 15.0765C24.0293 14.9929 23.8872 15.0391 23.7395 15.3151C23.5082 15.7475 23.5072 16.0342 23.7385 15.6372C23.98 15.2223 24.5679 15.2522 24.5679 15.6794C24.5679 15.8648 24.4612 16.0165 24.3309 16.0165C24.1771 16.0165 24.1245 16.1346 24.1813 16.3519C24.2296 16.5363 24.3396 16.6435 24.4258 16.5902C24.5121 16.5368 24.6812 16.5751 24.8017 16.675C24.9674 16.8126 25.0654 16.7587 25.2046 16.453C25.35 16.1344 25.5115 16.0528 25.9719 16.0658C26.3942 16.0777 26.5304 16.1465 26.4658 16.3149C26.409 16.4628 26.236 16.512 25.9897 16.4503C25.6807 16.3728 25.5921 16.4296 25.5491 16.7327C25.5073 17.0272 25.3817 17.1147 24.9894 17.1228C24.7112 17.1287 24.1043 17.1594 23.6407 17.1911C22.9127 17.241 22.9871 17.2634 24.1862 17.3553C25.8217 17.4805 26.0366 17.621 25.7689 18.389C25.4971 19.1686 25.5366 21.8481 25.8341 22.8289C26.1622 23.9102 26.1691 23.881 25.5533 24.0043C24.852 24.1445 24.5679 24.3993 24.5679 24.8878C24.5679 25.1677 24.4723 25.2887 24.2513 25.2887C23.7804 25.2887 23.4628 25.7314 23.7154 26.0359C23.875 26.2283 23.7938 26.5071 23.3146 27.4099C22.984 28.033 22.7135 28.7451 22.7135 28.9924C22.7135 29.2397 22.5944 29.8427 22.4491 30.3323C22.3038 30.8219 22.2232 31.2609 22.2703 31.3079C22.3173 31.3549 22.4688 31.025 22.6071 30.5749L22.8586 29.7562L22.8617 30.6835C22.8633 31.1934 22.8079 32.1227 22.7382 32.7486C22.6686 33.3746 22.6725 33.8866 22.7468 33.8866C22.8212 33.8866 22.8827 33.6401 22.8836 33.3387C22.8864 32.2272 23.0973 30.9921 23.2452 31.2196C23.3285 31.3475 23.344 31.0124 23.2816 30.4306C23.2221 29.8742 23.0992 29.3252 23.0088 29.2105C22.8153 28.9651 22.968 28.2334 23.3293 27.6752L23.5851 27.2799L23.9922 27.6624C24.2587 27.9128 24.3993 28.2319 24.3993 28.5861C24.3993 29.5516 25.4858 29.9751 26.3067 29.3294C26.6046 29.095 26.8741 29.02 27.1601 29.0917C27.8666 29.269 28.2538 29.0344 28.4487 28.3108C28.5554 27.9143 28.5681 27.537 28.4798 27.379C28.3848 27.2096 28.4234 26.9102 28.5866 26.5502L28.842 25.9867L29.5081 26.3264C29.8745 26.5133 30.5818 26.7082 31.08 26.7596C31.578 26.8111 31.9856 26.8815 31.9856 26.9161C31.9856 26.9508 31.8988 27.1182 31.7928 27.288C31.4974 27.7609 32.1519 28.5364 33.0769 28.8095C33.7295 29.0022 33.8875 28.9932 34.3777 28.7363C34.6847 28.5755 35.0497 28.3882 35.1888 28.3201C35.4489 28.1928 35.4829 27.6759 35.2739 27.0275C35.1699 26.705 35.2319 26.6447 35.7712 26.5433C37.1774 26.2797 39.5688 23.9846 40.2183 22.2758C40.6248 21.2063 40.9207 21.0601 40.9207 21.9287C40.9207 22.2323 41.0608 22.5404 41.2801 22.7195C41.4778 22.8808 41.8926 23.2595 42.2017 23.5607C42.5752 23.9247 42.9287 24.1086 43.2546 24.1086C43.8288 24.1086 44.0412 23.8913 44.202 23.1393C44.2784 22.7822 44.4188 22.5914 44.6054 22.5914C45.094 22.5914 45.641 22.0925 45.641 21.6469C45.641 21.4162 45.4612 21.0475 45.2415 20.8278C45.0217 20.608 44.792 20.2302 44.7314 19.9882C44.6707 19.7462 44.4712 19.3985 44.2881 19.2154C43.8488 18.7761 42.7652 18.7648 42.3756 19.1956C42.1874 19.4034 41.9468 19.4806 41.6592 19.4257C41.2492 19.3473 41.2319 19.3019 41.3327 18.5649C41.5257 17.1543 41.6188 16.8595 41.8711 16.8595C42.0084 16.8595 42.0738 16.7836 42.0165 16.6909C41.9591 16.5982 42.0306 16.5223 42.1751 16.5223C42.3196 16.5223 42.4379 16.4085 42.4379 16.2694C42.4379 15.9636 42.1572 15.9324 42.0579 16.2273C42.0026 16.3916 41.9253 16.3871 41.7068 16.2067C41.3893 15.9447 41.3382 15.6794 41.6049 15.6794C41.7031 15.6794 41.7294 15.767 41.6633 15.8741C41.5886 15.9946 41.6169 16.0229 41.7375 15.9483C41.8445 15.8822 41.9322 15.6809 41.9322 15.5008C41.9322 15.3208 42.0126 15.1736 42.1107 15.1736C42.2088 15.1736 42.2444 15.1011 42.1896 15.0124C42.1348 14.9238 41.9597 14.8929 41.8003 14.944C41.6312 14.9983 41.5808 14.9776 41.6793 14.8944C41.9873 14.6345 42.3622 14.0923 42.1429 14.224C41.9967 14.3118 41.9322 14.2214 41.9322 13.9291C41.9322 13.4304 41.6193 13.1782 41.4102 13.5083C41.3022 13.6788 41.257 13.6284 41.2405 13.3192C41.228 13.0874 41.2277 12.8387 41.2395 12.7666C41.2513 12.6944 41.1464 12.5916 41.0065 12.5378C40.8665 12.4842 40.7521 12.3426 40.7521 12.2234C40.7521 12.1042 40.6454 11.9656 40.515 11.9157C40.3847 11.8656 40.2263 11.5887 40.1629 11.3002C40.0412 10.7459 39.3336 9.90786 39.1424 10.0918C39.0804 10.1515 39.058 10.0486 39.0924 9.86318C39.1726 9.43228 39.4401 9.46144 39.6541 9.92438C39.7456 10.1226 39.8847 10.2846 39.9631 10.2846C40.0417 10.2846 40.0781 10.2277 40.0442 10.1582C39.6261 9.30011 39.4771 9.10455 39.2414 9.10455C39.0895 9.10455 38.874 9.01351 38.7628 8.90225C38.6055 8.74496 38.5605 8.74496 38.5605 8.90225C38.5605 9.01351 38.3936 9.10455 38.1896 9.10455C37.9085 9.10455 37.8661 9.05718 38.0139 8.90933C38.1618 8.76148 38.0486 8.5585 37.5473 8.0718C36.9603 7.50215 36.9181 7.41027 37.175 7.26056C37.4326 7.11052 37.4242 7.09114 37.0993 7.08658C36.8986 7.08389 36.7023 7.17644 36.6634 7.29226C36.6084 7.45612 36.4904 7.44854 36.1332 7.2582C35.7679 7.06349 35.6072 7.05489 35.3493 7.21606C34.9278 7.47922 34.8418 7.47163 34.9534 7.18099C35.092 6.81988 34.3366 6.63545 34.0914 6.97077C33.937 7.18184 33.85 7.19515 33.6787 7.03348C33.5026 6.86725 33.4973 6.89811 33.6509 7.19684C33.9903 7.85752 33.831 7.93575 33.174 7.43084C32.8213 7.15975 32.7935 7.07394 32.984 6.8445C33.1187 6.68215 33.1361 6.57577 33.0277 6.57577C32.9292 6.57577 32.8036 6.64826 32.7488 6.73694ZM51.7101 7.51968C51.7101 8.075 51.012 8.51956 50.5381 8.26601C50.1927 8.08107 50.196 8.06657 50.7357 7.42375C51.3283 6.71789 51.7101 6.75548 51.7101 7.51968ZM32.4914 7.25011C32.4914 7.34283 32.4155 7.4187 32.3228 7.4187C32.2301 7.4187 32.1542 7.34283 32.1542 7.25011C32.1542 7.15739 32.2301 7.08153 32.3228 7.08153C32.4155 7.08153 32.4914 7.15739 32.4914 7.25011ZM34.5755 7.3344C34.4728 7.60178 34.1773 7.68523 34.1773 7.44685C34.1773 7.26849 34.3615 7.08153 34.5372 7.08153C34.6115 7.08153 34.6287 7.19532 34.5755 7.3344ZM17.1372 7.91147C16.5788 8.46983 16.5363 8.74361 16.899 9.44509C17.3557 10.328 18.1504 10.523 18.8975 9.93517C19.1818 9.71162 19.3409 9.42334 19.3392 9.13439L19.3369 8.68309L19.1243 9.10455C18.869 9.61081 18.3665 9.71786 17.9076 9.36383C17.5364 9.07741 17.5167 9.10775 18.5831 8.32349C18.9174 8.0777 18.9169 8.07264 18.5223 7.7471C17.982 7.30119 17.7159 7.33289 17.1372 7.91147ZM36.1001 7.61291C36.0342 7.71962 36.12 7.90928 36.291 8.03437C36.4621 8.15929 36.5231 8.26162 36.4269 8.26162C36.1655 8.26162 35.5151 7.65421 35.6414 7.52794C35.8334 7.33609 36.2264 7.40875 36.1001 7.61291ZM30.6344 8.13518C30.6358 8.20464 30.5186 8.26162 30.3741 8.26162C30.2297 8.26162 30.1582 8.33749 30.2155 8.43021C30.2728 8.52293 30.2475 8.59879 30.1592 8.59879C30.0709 8.59879 29.9547 8.48416 29.9009 8.34423C29.76 7.97688 29.773 7.84016 29.9486 7.84016C30.0336 7.84016 30.1612 7.78217 30.232 7.71119C30.3563 7.58711 30.629 7.87455 30.6344 8.13518ZM17.8184 8.16991C18.0479 8.44639 17.9196 8.76738 17.5797 8.76738C17.3671 8.76738 17.1502 8.41976 17.1502 8.07921C17.1502 7.83763 17.5924 7.89748 17.8184 8.16991ZM36.9764 8.38452C36.8052 8.55597 36.6637 8.29787 36.8043 8.07045C36.9105 7.89849 36.9503 7.89849 37.0073 8.06977C37.0464 8.18694 37.0324 8.32855 36.9764 8.38452ZM33.5029 8.33597C33.5029 8.37694 33.4271 8.45718 33.3343 8.5145C33.2416 8.57182 33.1657 8.53827 33.1657 8.44015C33.1657 8.34204 33.2416 8.26162 33.3343 8.26162C33.4271 8.26162 33.5029 8.295 33.5029 8.33597ZM32.66 8.59879C32.66 8.69152 32.5796 8.76738 32.4815 8.76738C32.3833 8.76738 32.3498 8.69152 32.4071 8.59879C32.4644 8.50607 32.5447 8.43021 32.5856 8.43021C32.6266 8.43021 32.66 8.50607 32.66 8.59879ZM34.6721 8.86482C34.5643 8.99463 34.4054 9.05701 34.3185 9.0034C34.2253 8.94574 34.241 8.80952 34.3568 8.66994C34.4645 8.54013 34.6235 8.47775 34.7103 8.53136C34.8035 8.58902 34.7879 8.72523 34.6721 8.86482ZM33.8681 8.74647C33.687 8.86128 33.6953 8.90899 33.9102 8.99143C34.0571 9.0479 34.1773 9.19356 34.1773 9.31511C34.1773 9.43683 34.4048 9.62227 34.683 9.7273C35.0446 9.86386 35.1894 10.0304 35.1913 10.3121C35.1933 10.6021 35.2328 10.6447 35.3412 10.4738C35.4221 10.346 35.5726 10.2936 35.6756 10.3573C36.0438 10.5849 35.8543 10.2283 35.3516 9.74804C35.0704 9.47931 34.8831 9.18985 34.9355 9.10505C35.0778 8.87494 35.518 9.09764 35.4209 9.35051C35.371 9.48083 35.5091 9.61182 35.7638 9.67572C35.9983 9.73455 36.3918 9.99046 36.6381 10.2445C36.8844 10.4984 37.0339 10.6114 36.9704 10.4954C36.9066 10.3796 36.9287 10.2846 37.0193 10.2846C37.1096 10.2846 37.2089 10.3519 37.2399 10.434C37.3364 10.6903 38.8976 11.8095 38.8976 11.6222C38.8976 11.5248 38.9816 11.4968 39.0843 11.5602C39.2056 11.6352 39.2117 11.7122 39.1015 11.7808C38.7726 11.9855 38.8208 12.7377 39.1965 13.2654C39.6364 13.8831 39.6701 14.2799 39.3162 14.6711C39.059 14.9553 38.5271 16.7136 38.6586 16.8451C38.6974 16.8839 38.7291 16.8271 38.7291 16.719C38.7291 16.6108 38.8428 16.5223 38.9819 16.5223C39.1234 16.5223 39.2348 16.6727 39.2348 16.8637C39.2348 17.0759 39.4002 17.2679 39.6726 17.3715C39.9134 17.463 40.1516 17.6955 40.202 17.8882C40.2704 18.1497 40.3943 18.2191 40.6914 18.1623C41.0082 18.1018 41.0889 18.1589 41.0877 18.4423C41.0847 19.0963 39.9759 22.5322 39.5126 23.3225C38.9801 24.2314 37.0097 25.8709 36.0379 26.2138C33.1044 27.2487 29.2028 26.5814 27.1044 24.6857C26.216 23.8829 25.748 22.4938 25.748 20.6587C25.748 19.1912 26.2234 17.1225 26.7339 16.368C27.3145 15.5101 27.8098 14.1291 28.1932 12.2994C28.5991 10.3617 28.7849 9.94747 29.2478 9.94747C29.4719 9.94747 29.5995 9.8733 29.5403 9.77754C29.4827 9.68414 29.5609 9.48218 29.7143 9.32877C29.9311 9.11197 30.0226 9.09747 30.1251 9.26319C30.2246 9.42419 30.3418 9.4311 30.6032 9.29117C30.7937 9.18918 31.05 9.14164 31.1727 9.18564C31.2953 9.22947 31.9266 9.12006 32.5757 8.9422C33.8895 8.58244 34.2014 8.53524 33.8681 8.74647ZM28.6139 8.93596C28.6139 9.02869 28.5047 9.10455 28.371 9.10455C28.2373 9.10455 28.0812 9.02869 28.0239 8.93596C27.9666 8.84324 28.076 8.76738 28.2668 8.76738C28.4577 8.76738 28.6139 8.84324 28.6139 8.93596ZM30.9741 8.84173C30.9741 8.88269 30.8983 8.96294 30.8056 9.02026C30.7128 9.07758 30.637 9.04403 30.637 8.94591C30.637 8.84779 30.7128 8.76738 30.8056 8.76738C30.8983 8.76738 30.9741 8.80076 30.9741 8.84173ZM31.6485 8.93596C31.6485 9.02869 31.5726 9.10455 31.4799 9.10455C31.3872 9.10455 31.3113 9.02869 31.3113 8.93596C31.3113 8.84324 31.3872 8.76738 31.4799 8.76738C31.5726 8.76738 31.6485 8.84324 31.6485 8.93596ZM36.2003 8.84173C36.2003 9.01958 35.8768 9.09443 35.7805 8.93866C35.7223 8.84442 35.793 8.76738 35.9375 8.76738C36.0819 8.76738 36.2003 8.80076 36.2003 8.84173ZM29.1197 9.20435C29.1197 9.25931 28.968 9.49718 28.7825 9.73287C28.5971 9.96872 28.4454 10.3094 28.4454 10.49C28.4454 10.949 28.0682 10.7766 27.9929 10.2831C27.959 10.0603 27.8381 9.81126 27.7247 9.72983C27.5989 9.63981 27.7387 9.62008 28.0821 9.67943C28.5492 9.76018 28.6611 9.71921 28.734 9.44071C28.8124 9.1408 29.1197 8.95249 29.1197 9.20435ZM36.2003 9.44172C36.2003 9.53444 36.1244 9.6103 36.0317 9.6103C35.939 9.6103 35.8631 9.53444 35.8631 9.44172C35.8631 9.349 35.939 9.27313 36.0317 9.27313C36.1244 9.27313 36.2003 9.349 36.2003 9.44172ZM37.2118 9.44172C37.2118 9.53444 37.1359 9.6103 37.0432 9.6103C36.9505 9.6103 36.8746 9.53444 36.8746 9.44172C36.8746 9.349 36.9505 9.27313 37.0432 9.27313C37.1359 9.27313 37.2118 9.349 37.2118 9.44172ZM14.9923 9.64402C14.881 9.75529 14.79 9.98288 14.79 10.1498C14.79 10.3167 14.688 10.4532 14.5632 10.4532C14.4385 10.4532 14.2109 10.592 14.0575 10.7616C13.7419 11.1104 13.6849 11.3739 13.9622 11.2024C14.1986 11.0564 15.4643 12.2856 15.4643 12.661C15.4643 13.2214 14.982 13.1159 14.0989 12.362L13.2034 11.5978L12.901 11.9713C12.5486 12.4065 12.5077 12.6691 12.8101 12.553C13.0672 12.4543 14.2679 13.4141 14.4275 13.8458C14.5239 14.1066 14.6974 13.9822 15.5194 13.0631C16.057 12.4623 16.3932 11.9705 16.2664 11.9705C16.1398 11.9705 15.7866 11.7131 15.4815 11.3983C14.9474 10.8472 14.8346 10.2976 15.2288 10.1665C15.468 10.0867 16.6444 11.2928 16.6444 11.6178C16.6444 11.7813 16.8182 11.6984 17.1584 11.3725C17.4983 11.0468 17.5983 10.8568 17.4534 10.8111C17.3329 10.7732 16.9138 10.4497 16.5217 10.092C15.7873 9.42183 15.3441 9.29218 14.9923 9.64402ZM52.276 9.94242C51.7762 10.1493 51.3729 10.7737 51.3729 11.3413C51.3729 12.1635 52.6211 13.0481 52.9745 12.4763C53.0333 12.381 52.8948 12.3077 52.6557 12.3077C52.0587 12.3077 51.8458 11.8486 52.1606 11.24L52.4129 10.752L52.9819 11.3032C53.4604 11.767 53.592 11.8205 53.8105 11.6391C54.6786 10.9187 53.382 9.48505 52.276 9.94242ZM53.5645 10.517C53.5645 10.6446 53.4609 10.8352 53.3341 10.9404C53.1583 11.0863 53.0509 11.0682 52.8813 10.8639C52.6963 10.641 52.6995 10.5704 52.901 10.4429C53.257 10.2177 53.5645 10.2519 53.5645 10.517ZM38.2233 10.6218C38.2233 10.7145 38.1474 10.7904 38.0547 10.7904C37.962 10.7904 37.8861 10.7145 37.8861 10.6218C37.8861 10.5291 37.962 10.4532 38.0547 10.4532C38.1474 10.4532 38.2233 10.5291 38.2233 10.6218ZM40.3414 10.9096C40.25 11.1498 40.2692 11.1692 40.4358 11.004C40.5511 10.8895 40.6029 10.7535 40.551 10.7017C40.499 10.6498 40.4048 10.7434 40.3414 10.9096ZM11.8212 11.0308C11.6678 11.4305 11.8847 11.8341 12.2185 11.7699C12.4052 11.734 12.5141 11.5593 12.5141 11.2962C12.5141 10.8155 11.982 10.6119 11.8212 11.0308ZM38.7599 11.1642C38.639 11.285 38.5605 11.295 38.5605 11.1894C38.5605 10.9644 38.7599 10.7649 38.8724 10.8776C38.9202 10.9254 38.8697 11.0544 38.7599 11.1642ZM28.0328 11.6188C27.8978 11.8373 27.2653 11.6348 27.2653 11.3732C27.2653 11.0718 27.8229 10.9752 27.9909 11.2474C28.0654 11.3685 28.0843 11.5355 28.0328 11.6188ZM40.7654 11.3186C40.756 11.6337 40.8544 11.7894 41.1048 11.8548C41.4224 11.9378 41.4328 11.9187 41.2111 11.6637C41.0756 11.5079 40.9229 11.2667 40.8716 11.1276C40.8173 10.9797 40.7732 11.0591 40.7654 11.3186ZM39.9092 11.3804C39.9092 11.5195 39.8793 11.6333 39.8429 11.6333C39.8065 11.6333 39.733 11.5195 39.6795 11.3804C39.6263 11.2414 39.6561 11.1276 39.7458 11.1276C39.8356 11.1276 39.9092 11.2414 39.9092 11.3804ZM28.6139 11.8338C28.6139 12.2471 29.2593 12.7927 29.8878 12.9105C30.3603 12.9992 30.463 13.0818 30.3686 13.2978C30.0747 13.9687 30.0867 14.7242 30.3945 14.9492C30.7897 15.2382 31.9312 15.2365 32.7652 14.946C33.1246 14.8208 33.5324 14.7543 33.6715 14.7985C33.8487 14.8547 33.8728 14.8233 33.7523 14.6938C33.6278 14.5603 33.3515 14.5778 32.7561 14.757C30.594 15.4078 29.719 14.7579 30.7381 13.2583C30.9854 12.8943 31.4671 12.4832 31.8439 12.3144L32.5115 12.0155L30.9881 11.8963C30.1501 11.8309 29.3837 11.8272 29.2847 11.8884C29.1858 11.9494 28.9944 11.9078 28.8594 11.7958C28.6638 11.6335 28.6139 11.6413 28.6139 11.8338ZM33.8392 11.9423C33.4857 12.0609 33.688 12.6447 34.1688 12.8933C34.9163 13.2799 35.7955 13.1675 36.9589 12.5361C37.1444 12.4356 37.4099 12.3933 37.549 12.4422C37.7561 12.515 37.7639 12.4852 37.5926 12.2775C37.4775 12.1379 37.4141 11.9928 37.4517 11.955C37.5331 11.8731 34.082 11.8611 33.8392 11.9423ZM39.6964 12.0868C39.5396 12.2436 39.3641 12.3245 39.3063 12.2667C39.1402 12.1008 39.395 11.8019 39.7023 11.8019C39.9597 11.8019 39.9592 11.8242 39.6964 12.0868ZM54.1795 11.9936C53.9118 12.1492 53.8835 12.3046 53.981 13.0843C54.0727 13.8184 54.0475 13.9935 53.8501 13.9935C53.4 13.9935 53.1567 13.5238 53.3676 13.0612C53.5851 12.584 53.4585 12.5393 52.9745 12.9225C52.7408 13.1073 52.7021 13.2135 52.8481 13.2683C52.964 13.3118 53.0588 13.4416 53.0588 13.5567C53.0588 13.6719 53.2496 13.9453 53.4828 14.1645C53.8383 14.4986 53.9808 14.5359 54.3679 14.3966C54.8038 14.2395 54.8271 14.1776 54.7952 13.2583C54.7662 12.4233 54.802 12.2942 55.0481 12.3432C55.2472 12.383 55.3342 12.5663 55.333 12.9441C55.3311 13.5662 55.366 13.5879 55.7742 13.2185C56.0562 12.9633 56.0444 12.9193 55.5496 12.3756C55.0036 11.7754 54.7003 11.691 54.1795 11.9936ZM27.8548 12.687C27.7919 13.0811 27.62 13.4975 27.473 13.6125C27.1054 13.8996 27.0264 13.7627 27.2874 13.2915C27.4074 13.0749 27.4868 12.833 27.4639 12.7537C27.3914 12.5034 27.6181 11.9705 27.7971 11.9705C27.9052 11.9705 27.9266 12.2374 27.8548 12.687ZM10.5332 12.5555C10.1628 13.0648 10.1642 13.1353 10.5438 13.1066C10.958 13.0754 13.4696 15.0253 13.3652 15.297C13.2329 15.6419 13.4276 15.5447 13.8654 15.0472C14.3275 14.5224 14.3911 14.2929 14.0544 14.3654C13.928 14.3927 13.17 13.903 12.3703 13.277C11.5703 12.6511 10.8961 12.1414 10.872 12.1443C10.8479 12.1473 10.6955 12.3323 10.5332 12.5555ZM35.5259 12.4763C35.5259 12.569 35.4501 12.6448 35.3574 12.6448C35.2646 12.6448 35.1888 12.569 35.1888 12.4763C35.1888 12.3835 35.2646 12.3077 35.3574 12.3077C35.4501 12.3077 35.5259 12.3835 35.5259 12.4763ZM30.0457 12.643C30.1047 12.7384 30.0371 12.7667 29.8871 12.7092C29.5951 12.5971 29.5417 12.4763 29.7841 12.4763C29.8714 12.4763 29.9891 12.5513 30.0457 12.643ZM39.4877 12.7853C39.4877 13.0902 39.1578 13.0346 39.0922 12.7187C39.0559 12.5428 39.119 12.4658 39.2608 12.513C39.3857 12.5546 39.4877 12.6772 39.4877 12.7853ZM26.7904 13.0186C26.6695 13.1395 26.5909 13.1494 26.5909 13.0439C26.5909 12.8188 26.7904 12.6194 26.9028 12.732C26.9507 12.7799 26.9001 12.9088 26.7904 13.0186ZM40.2463 13.4878C40.2463 13.5805 40.0946 13.6563 39.9092 13.6563C39.7237 13.6563 39.572 13.5805 39.572 13.4878C39.572 13.395 39.7237 13.3192 39.9092 13.3192C40.0946 13.3192 40.2463 13.395 40.2463 13.4878ZM56.8477 13.4947C56.7881 13.5911 56.5849 13.6211 56.3964 13.5613C56.1511 13.4834 56.076 13.5174 56.1324 13.6808C56.1781 13.8131 55.8885 14.141 55.4438 14.4603C55.0216 14.7634 54.6229 15.0978 54.5577 15.2035C54.3886 15.4769 54.7386 16.1605 55.1074 16.2775C55.2952 16.3372 55.419 16.5354 55.419 16.777C55.419 16.9972 55.5523 17.2767 55.7155 17.3978C55.8785 17.519 56.0871 17.8395 56.1791 18.11C56.271 18.3806 56.4531 18.6375 56.5837 18.681C56.7393 18.7326 56.7882 18.6738 56.7257 18.5104C56.6604 18.3403 56.8931 18.1073 57.4573 17.7778C58.4149 17.2184 58.5698 16.8991 58.2156 16.214C57.841 15.4899 56.9363 15.2183 56.9363 15.8299C56.9363 16.1802 57.3719 16.435 57.5309 16.1777C57.6994 15.9049 57.9478 15.999 57.9478 16.3357C57.9478 16.86 57.4641 16.8935 56.8341 16.4129C56.3417 16.0373 56.1874 15.9963 55.8475 16.1512C55.5353 16.2935 55.4004 16.2817 55.2487 16.0988C54.9945 15.7925 55.1125 15.6219 56.0009 15.0106C56.5922 14.6038 56.7527 14.5544 56.8299 14.7555C56.8826 14.8928 57.0065 15.005 57.1055 15.005C57.2323 15.005 57.2328 14.9069 57.1069 14.6717C56.9636 14.4037 56.9931 14.298 57.2577 14.1328C57.5093 13.9757 57.5485 13.8554 57.4243 13.6231C57.2421 13.2828 57.0106 13.2312 56.8477 13.4947ZM41.4264 14.0878C41.4264 14.2435 41.5057 14.3015 41.6211 14.2304C41.739 14.1574 41.77 14.1839 41.6999 14.2973C41.6363 14.4003 41.4728 14.4418 41.3367 14.3895C41.0596 14.2833 40.9955 13.8249 41.2578 13.8249C41.3506 13.8249 41.4264 13.9433 41.4264 14.0878ZM24.881 14.3121C25.0067 14.3919 25.0447 14.4966 24.9653 14.5448C24.8859 14.593 24.723 14.5266 24.6035 14.3973C24.3626 14.1366 24.5252 14.0867 24.881 14.3121ZM27.0967 14.2364C27.0967 14.2774 27.0208 14.3577 26.9281 14.415C26.8354 14.4723 26.7595 14.4388 26.7595 14.3406C26.7595 14.2425 26.8354 14.1621 26.9281 14.1621C27.0208 14.1621 27.0967 14.1955 27.0967 14.2364ZM27.1636 15.1013C26.8947 15.7412 26.8802 15.75 26.7354 15.3624C26.6162 15.0433 26.6639 14.8879 26.9675 14.6038C27.4581 14.1449 27.51 14.2766 27.1636 15.1013ZM10.8564 14.4431C10.7945 14.5048 10.7439 14.6945 10.7439 14.8646C10.7439 15.0345 10.6701 15.1736 10.5797 15.1736C10.4894 15.1736 10.2919 15.4123 10.1412 15.704C9.8838 16.2018 9.88481 16.2274 10.1591 16.1221C10.5472 15.9732 12.1447 16.9866 12.0226 17.3044C11.8534 17.7454 12.1801 17.5247 12.5562 16.9441C13.0041 16.2526 13.021 16.1629 12.6784 16.2944C12.3623 16.4156 11.0811 15.5951 11.0811 15.2712C11.0811 15.1242 11.1999 15.0677 11.3992 15.1198C11.8041 15.2257 12.0157 14.8971 11.7494 14.5761C11.5374 14.3209 11.0511 14.2484 10.8564 14.4431ZM26.1042 14.885C25.9665 15.0226 25.9166 15.0037 25.9166 14.814C25.9166 14.4789 26.1433 14.2521 26.2271 14.5035C26.2627 14.61 26.2072 14.7818 26.1042 14.885ZM40.1971 15.057C40.2325 15.322 40.1772 15.5108 40.0639 15.5108C39.9486 15.5108 39.9021 15.3422 39.9493 15.0952C39.9929 14.8666 39.9619 14.6448 39.8805 14.6021C39.7989 14.5595 39.823 14.5423 39.9343 14.5638C40.0454 14.5854 40.1637 14.8073 40.1971 15.057ZM39.5 15.118C39.4407 15.2729 39.4675 15.4462 39.5595 15.503C39.6541 15.5615 39.588 15.6935 39.4076 15.8063C39.1284 15.9805 39.0913 15.9584 39.1139 15.6318C39.1283 15.4262 39.2181 15.166 39.3139 15.0536C39.5585 14.766 39.6261 14.7894 39.5 15.118ZM25.9368 15.2822C26.1421 15.5297 26.1239 15.5459 25.7677 15.4327C25.4744 15.3397 25.4022 15.3606 25.4956 15.5116C25.613 15.7015 25.3299 16.0079 25.0315 16.014C24.7581 16.0196 24.9256 15.5155 25.2798 15.2675C25.7323 14.9504 25.66 14.9489 25.9368 15.2822ZM32.6607 15.3097C31.901 15.387 31.5153 15.6757 31.8907 15.8859C32.0357 15.967 32.1542 16.1352 32.1542 16.2598C32.1542 16.888 33.4599 16.6978 34.1761 15.9653C34.4527 15.6822 34.6611 15.4368 34.639 15.4196C34.5259 15.3324 33.175 15.2572 32.6607 15.3097ZM30.4896 16.5221C29.3003 17.1778 29.0664 17.3794 29.2655 17.5785C29.3668 17.6798 29.8052 17.5365 30.4559 17.1897C31.0224 16.8878 31.4506 16.6054 31.4074 16.5623C31.3644 16.5191 31.0556 16.653 30.7213 16.8595C30.387 17.066 30.0693 17.1909 30.0152 17.1368C29.9611 17.0828 30.1605 16.9035 30.4581 16.7383C31.0812 16.3927 31.603 16.0283 31.4799 16.025C31.4335 16.0236 30.988 16.2473 30.4896 16.5221ZM25.0737 16.3537C25.0737 16.4464 25.0403 16.5223 24.9993 16.5223C24.9583 16.5223 24.8781 16.4464 24.8208 16.3537C24.7635 16.261 24.797 16.1851 24.8951 16.1851C24.9932 16.1851 25.0737 16.261 25.0737 16.3537ZM39.9934 16.6909C39.9361 16.7836 39.8134 16.8595 39.7207 16.8595C39.6279 16.8595 39.599 16.7836 39.6563 16.6909C39.7136 16.5982 39.8363 16.5223 39.929 16.5223C40.0218 16.5223 40.0508 16.5982 39.9934 16.6909ZM9.23896 17.1351C8.61839 17.9239 8.89825 18.8043 9.90183 19.22C10.5271 19.4789 11.0924 19.2793 11.5014 18.6551C11.7671 18.2495 11.7084 17.3652 11.4157 17.3652C11.3417 17.3652 11.321 17.5173 11.3697 17.7032C11.4848 18.1441 11.1416 18.5453 10.649 18.5453C10.0684 18.5453 10.0021 18.2727 10.4192 17.5979C10.7277 17.0987 10.7518 16.9679 10.5575 16.845C10.1237 16.5702 9.59113 16.6873 9.23896 17.1351ZM56.9363 16.862C57.161 17.0097 57.161 17.0464 56.9363 17.1941C56.564 17.4384 56.0933 17.4006 56.0933 17.1263C56.0933 16.9207 56.3061 16.744 56.5991 16.7067C56.6454 16.7008 56.7972 16.7708 56.9363 16.862ZM26.0852 17.1123C26.0852 17.2514 26.0093 17.3652 25.9166 17.3652C25.8239 17.3652 25.748 17.2514 25.748 17.1123C25.748 16.9733 25.8239 16.8595 25.9166 16.8595C26.0093 16.8595 26.0852 16.9733 26.0852 17.1123ZM20.269 18.1711C19.5272 18.7942 18.2669 19.9559 17.4683 20.7528C16.0877 22.1303 15.9829 22.2881 15.3392 23.9559C14.6185 25.823 14.0069 28.1021 14.1798 28.275C14.2372 28.3325 14.2842 28.2105 14.2842 28.0041C14.2842 27.7843 14.6376 27.2551 15.1364 26.7276C16.0471 25.7648 16.0486 25.7598 15.9006 24.1381C15.8406 23.4817 15.8765 22.9309 15.9938 22.7052C16.3715 21.9791 17.7242 20.5279 19.133 19.3373C21.441 17.3871 21.5499 17.3104 22.1887 17.1857L22.7978 17.0668L22.2077 17.0525C21.7158 17.0405 21.3934 17.2265 20.269 18.1711ZM41.4264 17.1966C41.4264 17.2894 41.3506 17.3652 41.2578 17.3652C41.1651 17.3652 41.0892 17.2894 41.0892 17.1966C41.0892 17.1039 41.1651 17.0281 41.2578 17.0281C41.3506 17.0281 41.4264 17.1039 41.4264 17.1966ZM43.5865 17.1432C43.708 17.1919 43.8535 17.1858 43.9095 17.1299C43.9655 17.0739 43.866 17.0341 43.6883 17.0414C43.4919 17.0495 43.452 17.0894 43.5865 17.1432ZM10.0114 17.6181C10.0404 17.7108 9.99523 17.8956 9.9111 18.0288C9.78433 18.2294 9.71268 18.2329 9.49234 18.0502C9.09718 17.7223 9.15719 17.3315 9.59282 17.3956C9.79411 17.4252 9.98259 17.5254 10.0114 17.6181ZM46.7363 17.4913C47.4778 17.5234 48.1528 17.6179 48.2364 17.7015C48.3268 17.7919 48.2695 18.0353 48.0951 18.3014C47.7411 18.8417 47.8615 19.894 48.2774 19.894C48.4207 19.894 48.731 20.0457 48.9667 20.2312C49.4855 20.6391 49.873 20.6552 50.5653 20.2973C51.0892 20.0263 51.0899 20.0265 51.6546 20.6766C51.9655 21.0343 52.5793 21.8698 53.0187 22.5332C54.2524 24.3961 54.2792 24.4328 54.0484 23.94C53.3917 22.5372 50.1372 18.3946 49.9411 18.7119C49.7884 18.9592 49.5 18.7432 49.5561 18.4238C49.5853 18.2584 49.3236 18.0097 48.8598 17.7621C48.2332 17.4274 47.9031 17.3706 46.7525 17.3991L45.3882 17.433L46.7363 17.4913ZM58.7661 17.8605C58.726 17.9811 58.3166 18.2904 57.8567 18.5477C56.8767 19.0961 56.667 19.6863 57.2958 20.1266C57.504 20.2726 57.6253 20.4412 57.5651 20.5016C57.5047 20.5618 57.5814 20.848 57.7353 21.1377C57.9553 21.5517 58.0287 21.6003 58.0789 21.3649C58.114 21.2004 58.5919 20.8389 59.141 20.5618C59.6901 20.2844 60.1377 20.0019 60.1357 19.9338C60.1336 19.8655 59.9836 19.62 59.8022 19.3882C59.533 19.044 59.4718 19.0212 59.4687 19.264C59.4642 19.6303 58.1047 20.3274 57.6988 20.1717C57.2348 19.9936 57.4842 19.673 58.5043 19.1354C59.0321 18.8572 59.4644 18.5811 59.4645 18.5219C59.4649 18.4625 59.3243 18.2402 59.1521 18.0276C58.9357 17.7604 58.8166 17.7088 58.7661 17.8605ZM20.43 18.7906C20.1835 19.0369 20.0161 19.3994 20.0161 19.6865C20.0161 20.073 19.8972 20.2254 19.4168 20.4545C18.7701 20.7629 18.2404 21.7058 18.4113 22.2444C18.6666 23.0486 19.5447 23.3318 20.8169 23.0204C21.2473 22.915 21.3648 22.9395 21.3648 23.1342C21.3648 24.0646 23.277 24.2145 24.0267 23.3429C24.2983 23.0272 24.3932 22.7584 24.3267 22.4938C24.2732 22.2807 24.3103 22.0563 24.4091 21.9952C24.7918 21.7587 24.9189 21.0522 24.6689 20.5513C24.5359 20.2843 24.3784 19.8454 24.3192 19.576C24.2601 19.3065 24.0615 18.9501 23.8779 18.784C23.5874 18.5212 23.4694 18.5091 22.9677 18.6905C22.4864 18.8644 22.308 18.8559 21.8864 18.6379C21.193 18.2793 20.9116 18.3088 20.43 18.7906ZM29.7994 18.6522C29.7964 18.7572 30.1064 19.1254 30.4881 19.4703C31.1742 20.0901 31.1965 20.0966 32.4021 20.0358C33.4117 19.9849 33.7423 19.8908 34.3211 19.4897C34.7056 19.2232 35.0202 18.9265 35.0202 18.8302C35.0202 18.734 34.8484 18.8164 34.6385 19.0136C34.0702 19.5476 33.1096 19.894 32.1972 19.894C31.3481 19.894 30.8484 19.6445 30.1798 18.8864C29.9734 18.6524 29.8023 18.547 29.7994 18.6522ZM7.07162 18.9959C6.83358 19.0915 5.85343 20.9357 5.85747 21.2799C5.85933 21.4303 5.90839 21.4194 6.01932 21.2439C6.15402 21.0308 6.39914 21.1016 7.61818 21.7063C8.59243 22.1895 9.06076 22.5162 9.06632 22.7166C9.07745 23.1195 10.2196 20.9124 10.2299 20.468C10.2398 20.04 9.74303 19.5568 9.29307 19.5568C9.11235 19.5568 8.79592 19.675 8.5899 19.8193C8.23436 20.0682 8.21514 20.0612 8.21514 19.6844C8.21514 19.0281 7.7254 18.7333 7.07162 18.9959ZM7.87139 20.0504C8.09865 20.4751 7.93225 20.8883 7.57199 20.7936C7.0814 20.6646 6.475 20.1182 6.59925 19.9171C6.79717 19.597 7.67819 19.6892 7.87139 20.0504ZM22.7839 20.1649C22.9534 20.23 23.0506 20.4722 23.0506 20.8296C23.0506 21.8939 21.7043 22.3176 21.0335 21.4647C20.8378 21.2159 20.7002 20.8954 20.7277 20.7524C20.826 20.2416 22.0629 19.8883 22.7839 20.1649ZM9.35764 20.4937C9.77826 20.7882 9.85699 21.374 9.4947 21.5131C9.30184 21.5871 8.34815 21.2253 8.06156 20.9694C7.95113 20.8706 8.58535 20.2312 8.79372 20.2312C8.89791 20.2312 9.15163 20.3494 9.35764 20.4937ZM43.2719 20.979C43.5076 21.2631 43.2394 21.917 42.8872 21.917C42.3712 21.917 42.0328 21.0291 42.4801 20.8485C42.8553 20.6971 43.0669 20.732 43.2719 20.979ZM60.2017 21.0346C59.9812 21.3853 58.5462 21.942 58.2027 21.8101C58.0029 21.7334 58.0111 21.8401 58.2485 22.4052C58.5413 23.1022 58.7907 23.305 58.7907 22.8464C58.7907 22.5738 59.799 22.0856 60.3622 22.0856C60.6347 22.0856 60.6675 22.1306 60.5103 22.2879C60.399 22.3992 60.308 22.6268 60.308 22.7937C60.308 23.1696 60.8564 23.1991 61.1549 22.8394C61.3321 22.6259 61.3063 22.5148 61.0056 22.1945C60.8056 21.9818 60.6866 21.7631 60.741 21.7087C60.7955 21.6542 60.7378 21.4145 60.6129 21.1761C60.4064 20.7819 60.3688 20.7691 60.2017 21.0346ZM49.1813 21.9067C49.0422 21.9882 48.6351 22.0465 48.2767 22.0362C47.3903 22.0109 47.1239 22.3953 47.191 23.6029C47.2259 24.2307 47.1804 24.5185 47.0499 24.494C46.7879 24.4448 46.6719 24.9647 46.842 25.4248C46.9297 25.6615 47.1757 25.8402 47.5044 25.9059C47.8377 25.9725 48.0813 26.1517 48.1756 26.3994C48.2568 26.6133 48.5164 26.9149 48.7523 27.0695C49.1481 27.3288 49.2134 27.3295 49.5969 27.0783C49.8253 26.9286 50.2856 26.806 50.6195 26.806C50.9533 26.806 51.3654 26.7316 51.5349 26.6409C51.9512 26.4181 52.226 25.6021 52.0129 25.2215C51.8932 25.0074 51.9183 24.8725 52.1046 24.7285C52.7978 24.1924 52.2219 22.9285 51.2844 22.9285C50.9884 22.9285 50.8112 22.8033 50.7025 22.5174C50.4563 21.8698 49.7373 21.5812 49.1813 21.9067ZM7.15052 23.1871C6.79683 23.9289 6.79734 23.94 7.18323 23.94C7.52866 23.94 7.98637 23.0718 7.79991 22.7701C7.61059 22.4637 7.4447 22.5701 7.15052 23.1871ZM60.7389 23.5877C60.5275 23.9296 60.8538 24.3037 61.2716 24.1988C61.6044 24.1154 61.6728 24.1533 61.6261 24.3951C61.5324 24.8821 61.061 24.8359 60.5108 24.2855C59.9109 23.6856 59.6304 23.6464 59.216 24.1042C58.9267 24.4241 58.9271 24.4556 59.225 24.905C59.3956 25.1625 59.519 25.5247 59.4989 25.7102C59.479 25.8956 59.5362 26.1608 59.6259 26.2994C59.7683 26.5197 59.8162 26.5155 60.0064 26.2655C60.1259 26.1082 60.603 25.8412 61.0666 25.6719C61.7998 25.4045 61.9161 25.298 61.9599 24.8541C62.0398 24.0441 61.075 23.0437 60.7389 23.5877ZM50.5937 24.0166C50.7976 24.3276 50.8244 24.5367 50.7016 24.8595C50.6118 25.0955 50.4941 25.2887 50.44 25.2887C50.3859 25.2887 50.3985 25.194 50.4681 25.078C50.56 24.9249 50.5194 24.9283 50.3196 25.0901C50.1684 25.2127 49.8314 25.2886 49.5708 25.2587C49.171 25.2129 49.0886 25.1171 49.0434 24.6456C49.0139 24.3381 49.08 23.9778 49.1904 23.8448C49.5161 23.4523 50.2857 23.5466 50.5937 24.0166ZM5.79898 24.1798C5.74098 24.3312 5.57257 24.3844 5.34228 24.3243C5.12396 24.2671 4.91778 24.3232 4.82877 24.4638C4.6091 24.8106 4.64231 24.9516 4.94357 24.9516C5.09125 24.9516 5.25226 25.1048 5.30131 25.2923C5.36605 25.5403 5.44714 25.5859 5.59853 25.4602C5.74486 25.3388 6.07006 25.3968 6.6918 25.6552C7.75136 26.0956 8.11635 25.9583 8.16035 25.1031C8.1767 24.788 8.15209 24.6628 8.1059 24.8251C8.00087 25.1936 7.6696 25.1972 6.73328 24.8396C6.16447 24.6223 6.01696 24.4893 6.07967 24.2496C6.17441 23.8873 5.93418 23.8276 5.79898 24.1798ZM60.6247 25.0283C60.578 25.0748 60.3582 25.1335 60.1358 25.1586C59.6463 25.214 59.449 24.681 59.919 24.5726C60.2221 24.5028 60.7861 24.8668 60.6247 25.0283ZM54.656 25.2803C54.8805 25.7144 54.8819 25.7953 54.6673 25.9154C54.529 25.9927 54.3999 26.3582 54.3722 26.7504C54.3453 27.1339 54.2664 27.4126 54.1967 27.3697C54.1271 27.3269 54.0703 27.5194 54.0703 27.7976C54.0703 28.0758 54.1462 28.3502 54.2389 28.4076C54.3316 28.4649 54.4075 28.7322 54.4075 29.0016C54.4075 29.5384 54.7457 29.8087 55.4213 29.8117C55.6518 29.8127 56.0492 29.8663 56.3041 29.9309C56.871 30.0747 56.8725 30.0275 56.3444 28.5669C56.1115 27.9229 55.9608 27.6027 56.0094 27.8551C56.0787 28.216 56.0429 28.2934 55.8425 28.2164C55.6788 28.1537 55.5884 27.8989 55.5901 27.5044C55.5921 27.0459 55.6341 26.9543 55.7562 27.1432C55.8543 27.2951 55.9205 27.316 55.9222 27.1953C55.9236 27.0848 55.8472 26.9466 55.7524 26.8879C55.6575 26.8294 55.3531 26.3318 55.0756 25.7822C54.7983 25.2326 54.5324 24.783 54.485 24.783C54.4376 24.783 54.5145 25.0069 54.656 25.2803ZM26.9281 25.4573C27.3634 25.8926 27.3582 26.6425 26.9158 27.2047C26.5169 27.712 26.1541 27.7627 25.617 27.3864C25.0694 27.0029 25.121 26.2269 25.735 25.6129C26.3178 25.0301 26.4798 25.009 26.9281 25.4573ZM3.49054 26.0583C3.2525 26.6846 3.28082 26.8849 3.57332 26.6423C3.7714 26.4778 4.13909 26.5433 5.42775 26.9727C6.47247 27.3207 7.03504 27.5936 7.03504 27.7524C7.03504 27.8868 6.9403 28.0272 6.82431 28.0646C6.59402 28.1388 4.41354 28.3061 3.5369 28.3167C2.64896 28.3273 2.87402 28.7231 4.39146 29.8186C5.1629 30.3754 5.86641 30.9931 5.95492 31.1914C6.10108 31.5191 6.13193 31.491 6.29478 30.8805C6.46303 30.2504 6.45511 30.2212 6.16396 30.4031C5.53413 30.7964 5.10508 30.098 5.43011 29.2083C5.55217 28.8747 6.49321 28.9445 6.56756 29.2926C6.60768 29.4799 6.70866 29.3415 6.84454 28.9133C6.96221 28.5424 7.12759 28.0872 7.21189 27.9018C7.29618 27.7164 7.44403 27.3473 7.54046 27.0818C7.68865 26.6735 7.67567 26.6143 7.45668 26.6983C7.31405 26.7531 6.4691 26.5341 5.57897 26.2119C4.68868 25.8896 3.8916 25.6259 3.80765 25.6259C3.72369 25.6259 3.58107 25.8204 3.49054 26.0583ZM62.1155 26.179C62.0129 26.4467 60.4717 26.8583 60.1024 26.7166C59.8647 26.6253 59.8529 26.6962 60.006 27.2994C60.1773 27.974 60.3852 28.1757 60.5133 27.7914C60.549 27.6843 60.9155 27.4972 61.3277 27.3755C61.9672 27.1867 62.1132 27.1902 62.3232 27.4003C62.6489 27.726 62.4239 27.9404 61.4481 28.2341C60.8857 28.4033 60.635 28.4143 60.4963 28.2755C60.2616 28.0409 60.2599 28.2278 60.4897 29.0553C60.6428 29.6065 60.6991 29.6632 60.868 29.4351C60.9772 29.2879 61.4838 29.0344 61.9938 28.8717C62.7772 28.622 62.9289 28.5075 62.9723 28.1338C63.0006 27.8903 62.9121 27.5798 62.7759 27.4436C62.6397 27.3074 62.5338 27.0892 62.5405 26.9587C62.585 26.0939 62.3288 25.6235 62.1155 26.179ZM18.3464 26.3284C17.8211 26.5207 17.3191 27.3171 17.3133 27.9667C17.3105 28.3018 17.1967 28.7235 17.0605 28.9034C16.7346 29.3343 16.7455 30.175 17.0834 30.6573C17.2872 30.9483 17.4888 31.0317 17.9015 30.9962C18.2972 30.9621 18.6003 31.0761 18.9928 31.4063C19.5914 31.9101 19.8561 31.9595 20.4065 31.6697C20.8961 31.4119 20.9782 31.2637 21.1074 30.4028C21.1771 29.9365 21.3032 29.6719 21.4555 29.6719C21.8159 29.6719 22.2392 28.9125 22.1779 28.3764C22.1436 28.079 21.9818 27.8398 21.7441 27.7354C21.4666 27.6137 21.3648 27.4269 21.3648 27.0395C21.3648 26.7483 21.2619 26.4247 21.1362 26.3203C20.8975 26.1222 18.8933 26.1279 18.3464 26.3284ZM44.0235 26.3264C43.9442 26.4543 43.9842 26.4788 44.1398 26.3977C44.2701 26.3299 44.1976 26.4321 43.9786 26.6246C43.7598 26.8171 43.4855 26.9746 43.3692 26.9746C43.2529 26.9746 42.9578 27.1319 42.7136 27.3241C42.2237 27.7093 42.1301 28.3351 42.5146 28.6542C42.712 28.8181 42.7203 28.9229 42.5568 29.1911C42.3818 29.4786 42.4201 29.5823 42.8338 29.9415C43.1318 30.2005 43.4301 30.3217 43.6204 30.2613C43.789 30.2077 43.9756 30.2429 44.0353 30.3394C44.3047 30.7753 45.0535 30.5078 45.7655 29.7212C46.5258 28.8813 46.5767 28.7365 46.327 28.1205C46.2407 27.9075 46.1284 27.5436 46.0775 27.3117C45.9135 26.5644 44.3421 25.8105 44.0235 26.3264ZM34.1216 27.0729C34.1818 27.2295 34.0741 27.4898 33.8612 27.7027C33.5739 27.9901 33.4373 28.0274 33.2055 27.8814C32.7681 27.6058 32.766 27.2243 33.2011 27.0149C33.7501 26.7504 34.0041 26.7664 34.1216 27.0729ZM46.3287 27.2414C46.3368 27.4378 46.3768 27.4778 46.4305 27.3434C46.4793 27.2217 46.4732 27.0762 46.4172 27.0203C46.3612 26.9643 46.3215 27.0638 46.3287 27.2414ZM37.2644 27.8733C37.0943 28.0894 36.7285 28.3759 36.4513 28.5099C36.0383 28.7097 35.9461 28.859 35.9402 29.3392C35.9361 29.6613 35.8709 30.1344 35.7948 30.3906C35.6096 31.0161 35.9403 31.4095 36.5732 31.3167C36.8434 31.2769 37.1302 31.3436 37.2356 31.4707C37.6184 31.9322 38.7291 31.5152 38.7291 30.9104C38.7291 30.8178 38.9187 30.5641 39.1505 30.3463C39.7151 29.8159 39.6814 29.3842 39.0241 28.7247C38.7226 28.4222 38.3433 28.0185 38.1812 27.8276C37.803 27.3826 37.644 27.3905 37.2644 27.8733ZM46.5656 29.0183C46.5694 31.0319 45.9426 32.5566 44.672 33.6244C44.1703 34.0461 44.1164 34.0585 44.0275 33.7748C43.9742 33.6045 43.8603 33.3334 43.7743 33.1724C43.6883 33.0114 43.618 32.6982 43.618 32.4765C43.618 31.9866 43.3702 31.7708 42.6487 31.6319C42.3472 31.5739 41.8647 31.4787 41.5763 31.4202C41.0004 31.3037 40.7592 31.5171 40.7546 32.1473C40.7531 32.3792 40.6122 32.5596 40.3734 32.6353C39.6079 32.8783 39.3231 33.8303 39.8195 34.4866C40.3387 35.1729 40.1723 35.2857 38.7712 35.197C38.0527 35.1515 37.6164 35.1741 37.8018 35.2472C38.3071 35.4465 41.0773 35.4279 41.8479 35.2201C42.2188 35.1201 42.9705 34.8172 43.5186 34.5467L44.5147 34.0552H50.9493H57.3837L57.2904 33.5073C57.1986 32.9678 57.1964 32.9664 57.1396 33.4255L57.0819 33.8915L52.0077 33.847C48.1304 33.8127 46.9169 33.7525 46.8633 33.5915C46.8174 33.454 46.9882 33.372 47.355 33.3555C47.8305 33.3341 47.8492 33.3198 47.4758 33.2623C47.0823 33.2016 47.0231 33.0993 46.9294 32.3181C46.8714 31.8362 46.8159 30.7593 46.8058 29.9248C46.7957 29.0903 46.737 28.2272 46.6751 28.0068C46.6134 27.7863 46.564 28.2415 46.5656 29.0183ZM20.0773 28.0714C20.5291 28.523 20.5807 29.0069 20.2277 29.4814C19.3348 30.6819 17.9005 29.4209 18.7613 28.1923C19.0639 27.7602 19.7071 27.701 20.0773 28.0714ZM45.2304 28.2064C45.2769 28.3276 45.2147 28.665 45.0923 28.9563C44.8861 29.4467 44.8391 29.4707 44.4561 29.2796C43.9791 29.0418 43.837 28.5844 44.1305 28.2309C44.3834 27.9262 45.1166 27.9099 45.2304 28.2064ZM50.6143 28.4015C50.3361 28.5288 50.18 28.6392 50.2672 28.6468C50.3545 28.6542 50.2952 28.756 50.1355 28.8727C49.9651 28.9974 49.8648 29.2579 49.8926 29.5044C49.9305 29.8399 49.8557 29.9353 49.5185 29.9818C48.9542 30.0595 48.507 30.483 48.507 30.9397C48.507 31.273 49.0304 32.1265 49.3919 32.3828C49.5553 32.4984 49.3678 33.0748 49.1093 33.2518C48.402 33.7362 51.0978 32.9037 52.7216 32.1365C53.7657 31.643 54.1098 31.6147 55.7568 31.8868C56.8179 32.062 56.9243 32.1166 56.9863 32.519C57.0384 32.8569 57.0573 32.822 57.0671 32.3693C57.0742 32.0448 57.019 31.4379 56.9448 31.0206L56.8098 30.262L56.7887 31.0628C56.765 31.9684 56.8317 31.945 55.1789 31.6253C54.1949 31.435 53.9243 31.436 53.4563 31.6316C53.1508 31.7592 52.8037 31.8605 52.6849 31.857C52.566 31.8533 52.7093 31.7457 53.0033 31.6178C53.8388 31.2543 54.2067 30.1777 53.4953 30.1777C53.3235 30.1777 53.2307 29.9567 53.1948 29.4612C53.1476 28.8069 53.0998 28.7398 52.6451 28.6881C52.3711 28.6569 51.994 28.5242 51.8069 28.3931C51.3938 28.1038 51.2625 28.1046 50.6143 28.4015ZM13.9737 28.829C13.9737 29.0608 14.0119 29.1557 14.0586 29.0397C14.1055 28.9239 14.1055 28.7343 14.0586 28.6183C14.0119 28.5025 13.9737 28.5972 13.9737 28.829ZM5.20117 29.3683C5.00882 29.8886 4.83265 29.899 4.25339 29.4243L3.74763 29.0097L4.54302 29.0037C5.29238 28.9979 5.33048 29.019 5.20117 29.3683ZM63.0053 29.2439C63.0053 29.3924 62.7204 29.5639 62.2888 29.6755C61.0511 29.9953 61.0019 30.0191 60.8973 30.3485C60.841 30.5257 60.8864 30.8414 60.9981 31.0501L61.2011 31.4296L61.3328 31.0737C61.5025 30.6147 61.5841 30.5712 62.5417 30.4279C63.2157 30.3269 63.3425 30.351 63.3425 30.5799C63.3425 30.7296 63.4271 30.852 63.5308 30.852C63.636 30.852 63.6802 30.7033 63.6308 30.5149C63.5804 30.3218 63.626 30.1765 63.7376 30.1752C64.1102 30.1701 64.3648 29.8963 64.2574 29.6163C64.1979 29.4615 63.9678 29.3348 63.7459 29.3348C63.5241 29.3348 63.3425 29.2589 63.3425 29.1662C63.3425 29.0735 63.2666 28.9976 63.1739 28.9976C63.0812 28.9976 63.0053 29.1085 63.0053 29.2439ZM38.1724 29.4454C38.3029 29.7856 37.6456 30.3727 37.2878 30.2355C36.9913 30.1217 36.968 29.646 37.2455 29.3685C37.5367 29.0773 38.0475 29.1197 38.1724 29.4454ZM13.7061 29.7682C13.6443 30.0153 13.626 30.25 13.6657 30.2898C13.7055 30.3294 13.7887 30.1598 13.8508 29.9128C13.9126 29.6657 13.9309 29.431 13.8912 29.3912C13.8514 29.3516 13.7682 29.5212 13.7061 29.7682ZM28.0355 30.3237C27.8776 30.6292 27.6063 30.8428 27.2981 30.9045C26.5968 31.0447 26.1494 31.7828 26.3859 32.4094C26.5127 32.7454 26.5151 33.0425 26.3935 33.3911C26.2978 33.6659 26.2625 34.0036 26.3155 34.1416C26.6632 35.0476 24.3002 33.1401 23.7236 32.0493C23.5471 31.7154 23.3994 31.5512 23.3952 31.6845C23.3912 31.8179 23.7307 32.3634 24.1498 32.8968L24.912 33.8668L24.192 33.9316C23.5338 33.9908 23.5518 33.9988 24.4012 34.0257C25.1984 34.0509 25.4921 34.1637 26.4727 34.8217C27.5691 35.5571 27.6577 35.5857 28.6625 35.5284L29.7097 35.4687L28.6139 35.431C27.6576 35.3979 26.7071 35.0577 26.9404 34.832C27.1703 34.6095 27.9496 34.6862 28.2535 34.9615C28.9049 35.5508 30.2973 34.9375 30.3008 34.0597C30.3015 33.9181 30.5264 33.6747 30.8005 33.5185C31.418 33.1672 31.6288 32.476 31.2471 32.0542C31.0969 31.8883 30.9741 31.55 30.9741 31.3023C30.9741 30.9574 30.8914 30.852 30.6203 30.852C30.4257 30.852 30.0538 30.6244 29.794 30.3463C29.1502 29.6571 28.3853 29.6473 28.0355 30.3237ZM34.5559 31.0196C33.9031 32.1537 32.5806 33.6155 31.5898 34.2979C31.0657 34.6589 30.637 34.9839 30.637 35.0203C30.637 35.1137 30.9662 34.9166 31.6245 34.4292C32.2926 33.9348 32.4847 34.0897 32.4889 35.1267C32.4907 35.6211 32.3906 35.8561 32.0699 36.1084C31.4683 36.5816 31.4947 37.3387 32.1246 37.6644C33.1017 38.1696 34.227 38.0774 34.8646 37.4398C35.4523 36.8522 35.5143 36.1741 35.0053 35.9017C34.6532 35.7132 34.6479 35.5508 34.9598 34.5043C35.0402 34.2345 35.0059 34.2195 34.6925 34.3873C34.4947 34.4931 34.0134 34.5508 33.6229 34.5154L32.9129 34.4512L33.7136 34.4218C34.1542 34.4056 34.5144 34.3225 34.5144 34.2371C34.5144 34.0076 33.5781 33.8432 32.9972 33.9709C32.4216 34.0973 32.3449 33.9028 32.806 33.4857C33.0391 33.2746 33.3116 33.2234 33.8596 33.2876L34.5987 33.3742L33.9657 33.192L33.3328 33.0098L33.8054 32.3946C34.0651 32.0561 34.4197 31.5539 34.593 31.2784L34.9082 30.7775L35.1193 31.447L35.3305 32.1164L35.238 31.3578C35.111 30.3146 34.9949 30.2569 34.5559 31.0196ZM52.1801 31.2401C52.1265 31.8797 52.0844 31.9325 51.6211 31.9397C51.2028 31.9465 51.1116 31.8745 51.0686 31.5038C51.0317 31.1855 51.1447 30.9594 51.4677 30.7054C52.0555 30.2429 52.2513 30.3899 52.1801 31.2401ZM13.4642 30.8842C13.4516 31.1337 13.5217 31.3876 13.62 31.4483C13.7869 31.5515 13.7122 32.9969 13.5005 33.7601C13.43 34.0142 13.5313 34.0513 14.2308 34.0268C14.9995 34 15.0079 33.9948 14.3874 33.9309L13.7319 33.8635L13.8353 32.7552C13.8922 32.1458 13.9681 31.6177 14.004 31.5818C14.0398 31.5461 14.4019 31.4514 14.8088 31.3714L15.5486 31.2261L14.591 31.2078C13.739 31.1912 13.6252 31.1474 13.5603 30.8099C13.4962 30.4776 13.4843 30.4869 13.4642 30.8842ZM48.9023 30.775C48.8474 30.9181 48.7663 30.999 48.7221 30.9549C48.6779 30.9107 48.6918 30.7935 48.753 30.6947C48.9192 30.4257 49.0163 30.4779 48.9023 30.775ZM46.6773 33.1998C46.6119 33.5175 46.4658 33.8083 46.3526 33.8461C46.0826 33.9361 46.0804 32.8488 46.3483 31.6611L46.5497 30.7677L46.6731 31.695C46.7409 32.2049 46.7429 32.8821 46.6773 33.1998ZM16.8973 31.5185C17.221 31.6651 18.1239 31.7607 17.9791 31.6331C17.9405 31.599 17.6053 31.5249 17.2344 31.4684C16.7644 31.3969 16.6623 31.4121 16.8973 31.5185ZM21.9553 32.0301C21.7631 32.9047 21.2564 32.9602 19.7465 32.272C19.0348 31.9477 18.3965 31.7041 18.3282 31.7309C18.2598 31.7575 18.8749 32.0827 19.6951 32.4536C20.9233 33.0091 21.1871 33.1949 21.1911 33.5073C21.194 33.716 21.2616 33.8866 21.3413 33.8866C21.4213 33.8866 21.4524 33.7075 21.4106 33.4887C21.3552 33.1987 21.4231 33.0678 21.6612 33.0055C21.8852 32.9469 22.0206 32.7176 22.0926 32.2742C22.2205 31.4851 22.1158 31.299 21.9553 32.0301ZM29.2994 31.7009C29.79 31.9634 29.7263 32.7712 29.1812 33.1999C28.6492 33.6185 28.3891 33.6376 28.0359 33.2846C27.6711 32.9196 27.7041 32.2676 28.1082 31.8635C28.4846 31.4871 28.8154 31.4419 29.2994 31.7009ZM45.9118 33.6479C45.8602 33.7824 45.593 33.8866 45.2997 33.8866H44.7791L45.3366 33.2195C45.8862 32.5618 45.8948 32.5585 45.9487 32.9809C45.9787 33.2164 45.9622 33.5167 45.9118 33.6479ZM66.7541 32.9159C66.0808 33.1074 65.5653 33.2997 65.6088 33.3432C65.7204 33.4547 67.8889 32.8518 67.9951 32.6797C68.0433 32.6016 68.0593 32.5446 68.0307 32.5527C68.002 32.561 67.4276 32.7243 66.7541 32.9159ZM35.5935 32.9172C35.6492 33.0796 35.7405 33.326 35.7969 33.4651C35.9262 33.7847 35.1933 33.818 34.8647 33.5073C34.6812 33.3338 34.6741 33.3596 34.825 33.6536C34.9575 33.9117 35.1217 33.9891 35.4174 33.9324C35.7166 33.8753 36.0064 34.0169 36.4973 34.4604C36.8664 34.7939 37.2263 35.0667 37.2971 35.0667C37.3679 35.0667 37.2231 34.9072 36.9751 34.7121C36.7273 34.5172 36.2923 33.9672 36.0086 33.4899C35.7249 33.0126 35.5381 32.7549 35.5935 32.9172ZM0.713099 33.2122C0.770418 33.305 0.850665 33.3808 0.891631 33.3808C0.932598 33.3808 0.965977 33.305 0.965977 33.2122C0.965977 33.1195 0.88556 33.0436 0.787444 33.0436C0.689327 33.0436 0.65578 33.1195 0.713099 33.2122ZM67.8117 33.2149C67.87 33.3092 67.9882 33.3427 68.0745 33.2893C68.3083 33.1448 68.2648 33.0436 67.9686 33.0436C67.8242 33.0436 67.7535 33.1207 67.8117 33.2149ZM42.6908 34.1394C42.6908 34.7057 42.6315 34.8222 42.3203 34.8666C41.8459 34.934 41.2578 34.6216 41.2578 34.3021C41.2578 33.907 41.918 33.3552 42.3218 33.4127C42.6311 33.4567 42.6908 33.5742 42.6908 34.1394ZM48.2152 33.4976C48.3792 33.5405 48.6068 33.5376 48.7209 33.4914C48.8351 33.4452 48.7009 33.4103 48.4227 33.4137C48.1445 33.4171 48.0511 33.4548 48.2152 33.4976ZM63.5111 33.8023C62.7229 34.0164 62.1793 34.1988 62.3028 34.2076C62.5567 34.2258 65.2429 33.559 65.3515 33.4509C65.4918 33.3109 64.9145 33.4211 63.5111 33.8023ZM67.0423 34.1816L66.4613 34.8138L67.0935 34.2328C67.6819 33.692 67.8032 33.5494 67.6744 33.5494C67.6463 33.5494 67.3619 33.834 67.0423 34.1816ZM2.16563 34.1034C2.40822 34.3087 3.28065 35.0501 4.10436 35.7511C5.54256 36.9749 7.48044 38.4807 9.03379 39.5812L9.76815 40.1016L9.03379 40.2918C6.81791 40.8658 2.02334 42.4143 1.77097 42.6377C1.65751 42.738 7.07078 44.1067 10.4489 44.8318L11.924 45.1484V41.9842V38.8199L13.4834 38.389C14.3412 38.1519 15.8736 37.7843 16.889 37.572L18.7352 37.1863L17.3105 36.9762C14.0278 36.4921 12.2283 36.193 10.2382 35.8007C7.96209 35.3521 3.20091 34.1924 2.43014 33.8987C1.73557 33.6342 1.67066 33.6844 2.16563 34.1034ZM65.5026 33.8331C65.6241 33.8819 65.7696 33.8758 65.8256 33.8198C65.8815 33.7638 65.7821 33.7241 65.6044 33.7313C65.408 33.7394 65.368 33.7794 65.5026 33.8331ZM66.3819 33.9056C64.7709 34.5484 58.8079 35.8304 53.6519 36.6421L50.1148 37.1991L51.2074 37.4095C52.4428 37.6475 55.3927 38.3644 56.2198 38.6274L56.7677 38.8017V41.9918C56.7677 43.7463 56.8245 45.1804 56.8941 45.1787C57.0369 45.1754 61.4122 44.1583 64.9036 43.3167C66.1796 43.0092 67.1658 42.7032 67.0952 42.6368C66.8644 42.419 62.0801 40.8754 59.8327 40.2935L59.1044 40.105L60.4228 39.1599C62.3067 37.8094 65.3505 35.3501 66.8767 33.9452C67.162 33.6827 66.9775 33.6679 66.3819 33.9056ZM1.8089 34.308C2.02671 34.5398 2.24284 34.7295 2.2892 34.7295C2.33556 34.7295 2.1953 34.5398 1.97749 34.308C1.75968 34.0762 1.54355 33.8866 1.49719 33.8866C1.45083 33.8866 1.59109 34.0762 1.8089 34.308ZM3.91622 34.0552C4.10166 34.1349 4.36718 34.2 4.50627 34.2C4.66558 34.2 4.63456 34.1465 4.42197 34.0552C4.23653 33.9754 3.97101 33.9103 3.83192 33.9103C3.67261 33.9103 3.70363 33.9638 3.91622 34.0552ZM64.4383 34.0552C64.2257 34.1465 64.1947 34.2 64.354 34.2C64.4931 34.2 64.7586 34.1349 64.944 34.0552C65.1566 33.9638 65.1877 33.9103 65.0283 33.9103C64.8893 33.9103 64.6237 33.9754 64.4383 34.0552ZM5.2649 34.3923C5.45034 34.4721 5.7538 34.5349 5.93924 34.5322C6.21032 34.5282 6.1938 34.5009 5.85495 34.3923C5.27855 34.2077 4.83534 34.2077 5.2649 34.3923ZM60.7294 34.4835L59.8865 34.711L60.6451 34.6145C61.0624 34.5614 61.5555 34.4566 61.7409 34.3815C62.2666 34.169 61.6742 34.2286 60.7294 34.4835ZM63.0053 34.3923C62.6665 34.5009 62.6499 34.5282 62.921 34.5322C63.1065 34.5349 63.4099 34.4721 63.5954 34.3923C64.0249 34.2077 63.5817 34.2077 63.0053 34.3923ZM6.49776 34.6761C6.61931 34.7248 6.7648 34.7187 6.82077 34.6627C6.87674 34.6068 6.77728 34.567 6.59959 34.5742C6.40319 34.5823 6.36323 34.6223 6.49776 34.6761ZM62.1309 34.6761C62.2524 34.7248 62.3979 34.7187 62.4539 34.6627C62.5098 34.6068 62.4104 34.567 62.2327 34.5742C62.0363 34.5823 61.9963 34.6223 62.1309 34.6761ZM7.1721 34.8446C7.29365 34.8934 7.43914 34.8873 7.49511 34.8313C7.55108 34.7754 7.45162 34.7356 7.27393 34.7428C7.07753 34.7509 7.03757 34.7909 7.1721 34.8446ZM59.0436 34.8264C58.9508 34.8652 57.1301 35.1943 54.9975 35.5581C51.1592 36.2125 50.239 36.4831 53.5192 35.9925C55.7283 35.6623 59.6688 34.919 59.7754 34.8124C59.8738 34.714 59.2862 34.7253 59.0436 34.8264ZM61.4565 34.8446C61.5781 34.8934 61.7236 34.8873 61.7795 34.8313C61.8355 34.7754 61.736 34.7356 61.5583 34.7428C61.3619 34.7509 61.322 34.7909 61.4565 34.8446ZM2.65183 34.9508C2.65183 34.9798 2.89847 35.2265 3.19973 35.4987L3.74763 35.9939L3.2525 35.446C2.79091 34.9353 2.65183 34.8205 2.65183 34.9508ZM7.84644 35.0132C7.96799 35.0619 8.11348 35.0559 8.16945 34.9999C8.22542 34.9439 8.12596 34.9042 7.94827 34.9114C7.75187 34.9195 7.71191 34.9594 7.84644 35.0132ZM60.7822 35.0132C60.9037 35.0619 61.0492 35.0559 61.1052 34.9999C61.1612 34.9439 61.0617 34.9042 60.884 34.9114C60.6876 34.9195 60.6477 34.9594 60.7822 35.0132ZM8.68937 35.1818C8.81092 35.2305 8.95641 35.2245 9.01238 35.1685C9.06835 35.1125 8.96888 35.0727 8.7912 35.08C8.59479 35.0881 8.55484 35.128 8.68937 35.1818ZM29.9626 35.2353C29.8235 35.3251 29.7856 35.3986 29.8783 35.3986C29.9711 35.3986 30.1607 35.3251 30.2998 35.2353C30.4389 35.1454 30.4768 35.0719 30.3841 35.0719C30.2914 35.0719 30.1017 35.1454 29.9626 35.2353ZM59.2964 35.2353C58.9626 35.3421 58.9451 35.3703 59.2122 35.3703C59.3976 35.3703 59.739 35.3094 59.9708 35.2353C60.3046 35.1284 60.3221 35.1002 60.0551 35.1002C59.8696 35.1002 59.5282 35.1611 59.2964 35.2353ZM65.5213 35.5303L65.1126 35.9939L65.5762 35.5852C65.8313 35.3603 66.0398 35.1518 66.0398 35.1216C66.0398 34.9893 65.9033 35.097 65.5213 35.5303ZM9.35309 35.3469C9.46908 35.3937 9.65873 35.3937 9.77455 35.3469C9.89054 35.3002 9.79562 35.2619 9.56382 35.2619C9.33202 35.2619 9.23727 35.3002 9.35309 35.3469ZM11.5553 35.3504C11.6769 35.3991 11.8224 35.393 11.8783 35.3371C11.9343 35.2811 11.8348 35.2413 11.6571 35.2486C11.4607 35.2567 11.4208 35.2966 11.5553 35.3504ZM10.196 35.5154C10.312 35.5623 10.5017 35.5623 10.6175 35.5154C10.7335 35.4687 10.6386 35.4305 10.4067 35.4305C10.1749 35.4305 10.0802 35.4687 10.196 35.5154ZM57.1048 35.6567C56.5949 35.7751 56.3293 35.8769 56.5148 35.8833C56.7002 35.8897 57.3071 35.7921 57.8635 35.6667C58.4198 35.5411 58.6853 35.4391 58.4535 35.4401C58.2217 35.4409 57.6148 35.5384 57.1048 35.6567ZM11.0389 35.684C11.1549 35.7309 11.3446 35.7309 11.4604 35.684C11.5764 35.6373 11.4815 35.5991 11.2497 35.5991C11.0179 35.5991 10.9231 35.6373 11.0389 35.684ZM13.5783 35.6876C13.6999 35.7363 13.8454 35.7302 13.9013 35.6742C13.9573 35.6183 13.8579 35.5785 13.6802 35.5857C13.4838 35.5938 13.4438 35.6338 13.5783 35.6876ZM11.8819 35.8526C11.9979 35.8995 12.1875 35.8995 12.3033 35.8526C12.4193 35.8059 12.3244 35.7676 12.0926 35.7676C11.8608 35.7676 11.766 35.8059 11.8819 35.8526ZM14.4213 35.8562C14.5428 35.9049 14.6883 35.8988 14.7443 35.8428C14.8002 35.7869 14.7008 35.7471 14.5231 35.7543C14.3267 35.7624 14.2867 35.8024 14.4213 35.8562ZM4.16909 36.3311C4.38691 36.5629 4.60303 36.7525 4.64939 36.7525C4.69575 36.7525 4.55549 36.5629 4.33768 36.3311C4.11987 36.0992 3.90374 35.9096 3.85738 35.9096C3.81102 35.9096 3.95128 36.0992 4.16909 36.3311ZM13.062 36.0212C13.1779 36.0681 13.3676 36.0681 13.4834 36.0212C13.5994 35.9745 13.5045 35.9362 13.2727 35.9362C13.0409 35.9362 12.9461 35.9745 13.062 36.0212ZM15.7593 36.0212C15.8753 36.0681 16.065 36.0681 16.1808 36.0212C16.2968 35.9745 16.2019 35.9362 15.9701 35.9362C15.7383 35.9362 15.6435 35.9745 15.7593 36.0212ZM54.6604 36.0782C53.9592 36.2565 54.6492 36.2645 55.5033 36.0878C56.0702 35.9706 56.097 35.9485 55.6719 35.9489C55.3937 35.9492 54.9385 36.0074 54.6604 36.0782ZM64.5098 36.3732L64.1011 36.8368L64.5647 36.4282C64.8198 36.2033 65.0283 35.9947 65.0283 35.9645C65.0283 35.8322 64.8918 35.9399 64.5098 36.3732ZM13.9049 36.1898C14.0209 36.2366 14.2105 36.2366 14.3264 36.1898C14.4423 36.1431 14.3474 36.1048 14.1156 36.1048C13.8838 36.1048 13.7891 36.1431 13.9049 36.1898ZM16.6023 36.1898C16.7182 36.2366 16.9079 36.2366 17.0237 36.1898C17.1397 36.1431 17.0448 36.1048 16.813 36.1048C16.5812 36.1048 16.4864 36.1431 16.6023 36.1898ZM15.2536 36.3584C15.3696 36.4052 15.5592 36.4052 15.675 36.3584C15.791 36.3117 15.6961 36.2734 15.4643 36.2734C15.2325 36.2734 15.1378 36.3117 15.2536 36.3584ZM48.6756 36.4996C47.9134 36.6257 47.6455 36.7134 48.0012 36.7202C48.3258 36.7262 49.1603 36.6318 49.8557 36.5103C50.561 36.387 50.8591 36.2894 50.53 36.2898C50.2055 36.2901 49.371 36.3845 48.6756 36.4996ZM53.2695 36.3629C53.4317 36.4054 53.6974 36.4054 53.8596 36.3629C54.0217 36.3206 53.8891 36.2859 53.5645 36.2859C53.24 36.2859 53.1073 36.3206 53.2695 36.3629ZM16.2651 36.5269C16.3811 36.5738 16.5707 36.5738 16.6865 36.5269C16.8025 36.4802 16.7076 36.442 16.4758 36.442C16.244 36.442 16.1493 36.4802 16.2651 36.5269ZM19.131 36.5269C19.247 36.5738 19.4367 36.5738 19.5525 36.5269C19.6685 36.4802 19.5736 36.442 19.3418 36.442C19.11 36.442 19.0152 36.4802 19.131 36.5269ZM52.2612 36.5322C52.4253 36.575 52.6528 36.5721 52.767 36.5259C52.8811 36.4797 52.7469 36.4449 52.4687 36.4482C52.1906 36.4516 52.0972 36.4894 52.2612 36.5322ZM17.2766 36.6955C17.3926 36.7424 17.5822 36.7424 17.6981 36.6955C17.814 36.6488 17.7191 36.6106 17.4873 36.6106C17.2555 36.6106 17.1608 36.6488 17.2766 36.6955ZM20.1425 36.6955C20.2585 36.7424 20.4482 36.7424 20.564 36.6955C20.68 36.6488 20.5851 36.6106 20.3533 36.6106C20.1215 36.6106 20.0267 36.6488 20.1425 36.6955ZM51.0779 36.7001C51.2401 36.7426 51.5058 36.7426 51.668 36.7001C51.8301 36.6578 51.6975 36.623 51.3729 36.623C51.0484 36.623 50.9157 36.6578 51.0779 36.7001ZM5.09631 37.0897C5.26406 37.2751 5.43938 37.4269 5.48574 37.4269C5.53211 37.4269 5.43264 37.2751 5.2649 37.0897C5.09716 36.9042 4.92183 36.7525 4.87547 36.7525C4.82911 36.7525 4.92857 36.9042 5.09631 37.0897ZM18.7128 36.8693C18.8768 36.9122 19.1044 36.9093 19.2185 36.8631C19.3327 36.8169 19.1985 36.782 18.9203 36.7854C18.6421 36.7888 18.5487 36.8265 18.7128 36.8693ZM49.7324 36.8693C49.8965 36.9122 50.1241 36.9093 50.2382 36.8631C50.3523 36.8169 50.2181 36.782 49.94 36.7854C49.6618 36.7888 49.5684 36.8265 49.7324 36.8693ZM63.5794 37.1318L63.2582 37.5112L63.6375 37.19C63.9939 36.8882 64.0935 36.7525 63.9587 36.7525C63.9266 36.7525 63.756 36.9231 63.5794 37.1318ZM19.7632 37.0897C20.2316 37.291 20.562 37.291 20.4376 37.0897C20.3802 36.997 20.1292 36.9265 19.8797 36.9329C19.4746 36.9435 19.4621 36.9604 19.7632 37.0897ZM48.3384 37.0897C48.1297 37.2246 48.1444 37.2515 48.4227 37.2438C48.6081 37.2387 48.9116 37.1694 49.097 37.0897C49.4059 36.957 49.3988 36.944 49.0127 36.9356C48.7809 36.9304 48.4775 36.9998 48.3384 37.0897ZM18.4988 37.934C17.3398 38.1993 16.068 38.4972 15.6727 38.596C15.2772 38.6948 14.7841 38.7779 14.5769 38.7806C13.5827 38.7943 14.9076 39.0861 17.1502 39.3475C18.4946 39.5043 19.9171 39.6719 20.3111 39.7201L21.0276 39.8078V38.6172C21.0276 37.7708 20.9668 37.4304 20.8169 37.4392C20.7011 37.4459 19.6579 37.6686 18.4988 37.934ZM47.8327 38.6127V39.7987L48.6334 39.7098C51.8283 39.3558 54.0364 39.076 54.3232 38.989C54.5262 38.9274 53.3521 38.5984 51.3729 38.1622C49.5649 37.7637 48.0287 37.4353 47.9591 37.4323C47.8895 37.4292 47.8327 37.9604 47.8327 38.6127ZM17.3187 37.764C16.9849 37.8709 16.9674 37.8991 17.2344 37.8991C17.4199 37.8991 17.7613 37.8382 17.9931 37.764C18.3269 37.6571 18.3444 37.629 18.0774 37.629C17.8919 37.629 17.5505 37.6899 17.3187 37.764ZM50.6143 37.6727C50.9543 37.8296 55.3028 38.7792 55.3706 38.7115C55.452 38.6302 52.1145 37.8271 51.1201 37.6887C50.7492 37.6371 50.5216 37.63 50.6143 37.6727ZM15.8015 38.1012C15.4677 38.2081 15.4501 38.2362 15.7172 38.2362C15.9026 38.2362 16.244 38.1754 16.4758 38.1012C16.8096 37.9943 16.8271 37.9662 16.5601 37.9662C16.3747 37.9662 16.0333 38.027 15.8015 38.1012ZM14.927 38.3849C15.0486 38.4337 15.1941 38.4276 15.25 38.3716C15.306 38.3156 15.2065 38.2759 15.0288 38.2831C14.8324 38.2912 14.7925 38.3312 14.927 38.3849ZM33.1657 38.4933C33.3975 38.6137 33.6251 38.658 33.6715 38.5921C33.7179 38.5262 33.9455 38.4372 34.1773 38.394C34.4091 38.3509 34.1815 38.3065 33.6715 38.2952C32.8132 38.2764 32.7756 38.291 33.1657 38.4933ZM13.6942 38.607C13.2646 38.7916 13.7078 38.7916 14.2842 38.607C14.6231 38.4984 14.6396 38.4711 14.3685 38.467C14.1831 38.4643 13.8796 38.5272 13.6942 38.607ZM31.8875 38.7907C31.5746 39.1366 31.5748 39.1476 31.8936 39.3808C32.0725 39.5116 32.5266 39.6083 32.9029 39.5959L33.5872 39.5735L32.7935 39.4625C31.7837 39.3214 31.6733 39.2011 32.1724 38.7853C32.3943 38.6007 32.4926 38.4471 32.3911 38.4439C32.2896 38.4409 32.063 38.597 31.8875 38.7907ZM34.7393 38.8721C34.6331 39.0972 34.6098 39.2813 34.6876 39.2813C34.8341 39.2813 35.0962 38.6268 34.9917 38.5222C34.959 38.4896 34.8455 38.6471 34.7393 38.8721ZM12.5213 38.9283C12.2713 39.0261 12.3903 39.0846 13.0124 39.1699C13.464 39.2317 13.8717 39.2442 13.9184 39.1975C13.9651 39.1508 13.8388 39.1127 13.638 39.1127C13.4371 39.1127 13.2727 39.0368 13.2727 38.9441C13.2727 38.7496 12.9933 38.7437 12.5213 38.9283ZM55.5594 38.935C55.5028 39.0962 52.2049 39.6185 49.097 39.9587C46.9525 40.1933 45.7164 40.4112 46.3638 40.4403C47.0147 40.4695 52.077 39.8338 54.3232 39.4408C55.3431 39.2622 56.2344 39.1154 56.3041 39.1144C56.3737 39.1136 56.4305 40.592 56.4305 42.4001C56.4305 45.2823 56.4634 45.6875 56.6965 45.6875C57.8008 45.6875 68.1382 43.0878 67.3796 43.0008C67.3283 42.9951 66.0894 43.2938 64.6266 43.6648C63.1638 44.0357 60.8919 44.569 59.5781 44.8495C58.2642 45.1302 57.0563 45.3885 56.8941 45.4235C56.6212 45.4825 56.5991 45.2445 56.5991 42.2354C56.5991 39.0055 56.5966 38.9827 56.2198 38.8817C55.7042 38.7437 55.6247 38.7501 55.5594 38.935ZM14.7057 39.4595C15.0766 39.5362 15.5697 39.5947 15.8015 39.5893C16.0719 39.5832 15.9812 39.5296 15.5486 39.4403C15.1777 39.3636 14.6846 39.3051 14.4528 39.3105C14.1824 39.3165 14.2731 39.3701 14.7057 39.4595ZM33.7979 39.3929C33.9139 39.4398 34.1036 39.4398 34.2194 39.3929C34.3354 39.3462 34.2405 39.3079 34.0087 39.3079C33.7769 39.3079 33.6821 39.3462 33.7979 39.3929ZM12.5984 43.8331C12.5984 46.2439 12.6553 48.2175 12.7248 48.2188C12.7942 48.2204 13.6857 48.3733 14.7057 48.5589C18.0524 49.1678 20.9777 49.5382 26.8438 50.0954C29.7384 50.3703 39.2212 50.3681 41.9322 50.0918C43.0912 49.9736 45.1395 49.7669 46.484 49.6323C49.2675 49.3534 53.0888 48.8161 54.8289 48.4589C55.478 48.3255 56.0658 48.2165 56.1355 48.2165C56.2051 48.2163 56.2619 46.2439 56.2619 43.8331C56.2619 40.4386 56.2144 39.45 56.0512 39.4506C55.9354 39.4509 54.9301 39.6004 53.8174 39.7828C45.3285 41.1745 36.2065 41.6039 26.9013 41.0499C21.6306 40.7362 17.2791 40.2562 13.9663 39.6234C13.4667 39.5279 12.9546 39.4499 12.8283 39.4499C12.64 39.4499 12.5984 40.2443 12.5984 43.8331ZM16.3212 39.6879C16.4212 39.7867 22.0374 40.4658 22.5449 40.4403C23.0489 40.4152 21.8439 40.2186 19.0889 39.8764C17.0273 39.6203 16.1956 39.5637 16.3212 39.6879ZM7.67786 39.9022C7.79941 39.9509 7.9449 39.9448 8.00087 39.8889C8.05684 39.8329 7.95737 39.7931 7.77968 39.8004C7.58328 39.8085 7.54333 39.8484 7.67786 39.9022ZM21.6704 39.9022C21.792 39.9509 21.9375 39.9448 21.9934 39.8889C22.0494 39.8329 21.9499 39.7931 21.7723 39.8004C21.5758 39.8085 21.5359 39.8484 21.6704 39.9022ZM46.5261 39.9032C46.6883 39.9457 46.954 39.9457 47.1162 39.9032C47.2783 39.8609 47.1457 39.8262 46.8211 39.8262C46.4966 39.8262 46.3639 39.8609 46.5261 39.9032ZM5.85495 40.3383C5.25225 40.5292 4.83703 40.7114 4.93245 40.7434C5.0277 40.7755 5.63461 40.617 6.28113 40.3913C7.70635 39.8934 7.38536 39.8536 5.85495 40.3383ZM23.2646 40.0725C23.4286 40.1153 23.6562 40.1124 23.7703 40.0662C23.8845 40.02 23.7503 39.9851 23.4721 39.9885C23.1939 39.9919 23.1005 40.0296 23.2646 40.0725ZM45.0952 40.0748C45.3049 40.1151 45.6083 40.1136 45.7695 40.0715C45.9307 40.0293 45.7591 39.9963 45.3882 39.9981C45.0173 40 44.8854 40.0345 45.0952 40.0748ZM24.6943 40.2432C24.903 40.2834 25.2443 40.2834 25.453 40.2432C25.6617 40.2029 25.4909 40.1701 25.0737 40.1701C24.6564 40.1701 24.4856 40.2029 24.6943 40.2432ZM43.4073 40.2432C43.616 40.2834 43.9572 40.2834 44.1659 40.2432C44.3746 40.2029 44.2039 40.1701 43.7866 40.1701C43.3694 40.1701 43.1986 40.2029 43.4073 40.2432ZM26.5451 40.4145C26.8443 40.4518 27.3753 40.4523 27.7252 40.4159C28.0748 40.3793 27.83 40.3489 27.181 40.3481C26.5319 40.3474 26.2457 40.3773 26.5451 40.4145ZM40.7942 40.4135C41.0491 40.4521 41.4665 40.4521 41.7214 40.4135C41.9763 40.3749 41.7678 40.3434 41.2578 40.3434C40.7479 40.3434 40.5393 40.3749 40.7942 40.4135ZM23.8514 40.5804C24.0601 40.6205 24.4013 40.6205 24.61 40.5804C24.8188 40.5401 24.648 40.5072 24.2307 40.5072C23.8135 40.5072 23.6427 40.5401 23.8514 40.5804ZM32.2065 40.5875C33.4869 40.6161 35.5352 40.6162 36.7583 40.5873C37.9812 40.5585 36.9336 40.5351 34.4301 40.5352C31.9266 40.5352 30.9259 40.5588 32.2065 40.5875ZM44.3345 40.5775C44.4967 40.62 44.7624 40.62 44.9246 40.5775C45.0867 40.5352 44.9541 40.5005 44.6295 40.5005C44.305 40.5005 44.1723 40.5352 44.3345 40.5775ZM25.8744 40.7416C25.9904 40.7884 26.1801 40.7884 26.2959 40.7416C26.4119 40.6949 26.317 40.6566 26.0852 40.6566C25.8534 40.6566 25.7586 40.6949 25.8744 40.7416ZM2.14607 41.5572C0.98705 41.9598 0.116814 42.2953 0.212233 42.3025C0.307653 42.3099 1.36974 41.9802 2.57243 41.5702C3.77511 41.16 4.64535 40.8245 4.50627 40.8247C4.36718 40.8249 3.3051 41.1546 2.14607 41.5572ZM33.7942 41.0889C34.0935 41.1261 34.6245 41.1266 34.9743 41.0902C35.324 41.0536 35.0792 41.0233 34.4301 41.0224C33.7811 41.0218 33.4948 41.0516 33.7942 41.0889ZM65.7027 41.8101C65.8418 41.8999 66.0314 41.9734 66.1241 41.9734C66.2169 41.9734 66.1789 41.8999 66.0398 41.8101C65.9008 41.7202 65.7111 41.6467 65.6184 41.6467C65.5257 41.6467 65.5636 41.7202 65.7027 41.8101ZM66.8828 42.2315C67.6525 42.5279 67.9553 42.5235 67.3042 42.2255C67.0261 42.098 66.6847 41.9962 66.5456 41.9991C66.4065 42.0019 66.5582 42.1066 66.8828 42.2315ZM1.30315 42.3158C1.16406 42.4057 1.12613 42.4792 1.21885 42.4792C1.31158 42.4792 1.50123 42.4057 1.64032 42.3158C1.7794 42.226 1.81733 42.1525 1.72461 42.1525C1.63189 42.1525 1.44223 42.226 1.30315 42.3158ZM15.3446 42.5035C16.2073 42.9364 16.7668 43.4297 17.0819 44.0354C17.9499 45.7039 16.1199 47.6455 14.4789 46.7968L13.947 46.5219V44.6012C13.947 43.5448 13.9931 42.5606 14.0494 42.4139C14.1866 42.0565 14.4968 42.078 15.3446 42.5035ZM52.5038 43.4988C52.9866 44.1805 53.5836 44.9329 53.8304 45.1708L54.279 45.6032L54.1795 43.9664C54.076 42.2615 54.231 41.7844 54.686 42.4065C54.8431 42.6216 54.9132 43.2749 54.9132 44.5258C54.9132 46.4453 54.8379 46.8676 54.4951 46.8676C54.2305 46.8676 53.0871 45.6413 52.444 44.6673L51.963 43.9391L51.9143 45.304C51.8661 46.6549 51.6283 47.2139 51.2118 46.9565C51.0155 46.8353 50.9596 42.4482 51.1518 42.2561C51.3751 42.0326 51.6332 42.2698 52.5038 43.4988ZM0.460221 42.6478C0.460221 42.7375 0.574016 42.7673 0.713099 42.714C0.852182 42.6606 0.965977 42.5871 0.965977 42.5507C0.965977 42.5143 0.852182 42.4844 0.713099 42.4844C0.574016 42.4844 0.460221 42.5579 0.460221 42.6478ZM67.8943 42.5507C67.8943 42.5871 68.0081 42.6606 68.1472 42.714C68.2862 42.7673 68.4 42.7375 68.4 42.6478C68.4 42.5579 68.2862 42.4844 68.1472 42.4844C68.0081 42.4844 67.8943 42.5143 67.8943 42.5507ZM19.8141 42.9302C20.0899 43.004 20.1876 43.1377 20.1513 43.3914C20.1097 43.6825 19.9987 43.7409 19.5523 43.706L19.0046 43.6632V45.0125C19.0046 46.3209 19.0167 46.3619 19.4055 46.3619C19.864 46.3619 20.2214 46.7056 20.0486 46.9802C19.9844 47.0824 19.4008 47.1937 18.7517 47.2276C17.6347 47.2859 17.5687 47.2689 17.5177 46.9098C17.4738 46.6009 17.5443 46.5305 17.897 46.5305C18.3282 46.5305 18.3302 46.5239 18.3302 45.0975C18.3302 43.6945 18.3216 43.6645 17.9228 43.6645C17.5047 43.6645 17.3088 43.4051 17.4459 43.0323C17.5283 42.8084 19.1059 42.7405 19.8141 42.9302ZM50.6517 43.0107C50.9565 43.3155 50.7021 43.6645 50.1748 43.6645H49.6871V45.0132C49.6871 46.3438 49.6928 46.3619 50.1138 46.3619C50.6003 46.3619 50.8665 46.8245 50.5125 47.0546C50.383 47.1387 49.784 47.1879 49.1813 47.164C48.3391 47.1306 48.0855 47.062 48.0855 46.8676C48.0855 46.7285 48.2561 46.5399 48.4648 46.4484C48.8113 46.2963 48.8442 46.1687 48.8442 44.9732C48.8442 43.974 48.7892 43.6645 48.6119 43.6645C48.3008 43.6645 47.9449 43.2176 48.081 42.9976C48.2271 42.7609 50.413 42.772 50.6517 43.0107ZM29.7824 43.2291C30.1314 43.6497 29.8247 43.8331 28.7726 43.8331H27.771V44.4449V45.0567L28.591 44.9478C29.2251 44.8638 29.4604 44.8987 29.6292 45.1019C29.9539 45.4931 29.6472 45.6922 28.545 45.806L27.5851 45.905L27.6358 46.5128L27.6867 47.1205H28.6139C29.4471 47.1205 29.5466 47.1589 29.5951 47.4998C29.6465 47.8626 29.5968 47.8791 28.4529 47.8791C27.3162 47.8791 27.2486 47.8572 27.0881 47.4351C26.9397 47.0451 26.8841 43.3946 27.0227 43.1498C27.0517 43.0986 27.6375 43.0387 28.3243 43.0168C29.264 42.9868 29.625 43.0392 29.7824 43.2291ZM2.31466 43.3488C3.37826 43.7744 11.4334 45.6875 12.1617 45.6875C12.6373 45.6875 11.9427 45.4591 10.6343 45.1853C9.81299 45.0134 7.55951 44.487 5.62651 44.0157C2.06785 43.148 1.55451 43.0446 2.31466 43.3488ZM14.8254 44.6244C14.8739 46.0965 14.8781 46.1095 15.3276 46.1614C15.9449 46.2326 16.4758 45.6774 16.4758 44.9604C16.4758 44.3825 15.965 43.7515 15.1625 43.3385L14.7765 43.1397L14.8254 44.6244ZM23.3878 43.9433C23.3878 44.4012 22.9581 44.6509 22.6685 44.3613C22.3139 44.0067 21.9481 44.1669 21.4867 44.8783C20.9986 45.6312 20.8978 46.3332 21.2299 46.6653C21.5136 46.949 22.0423 46.917 22.3989 46.5943C22.7428 46.2831 23.2192 46.3912 23.2192 46.7805C23.2192 47.1419 22.2318 47.7092 21.6016 47.7099C21.0241 47.7106 20.6431 47.3769 20.3541 46.6171C19.9144 45.4603 21.0401 43.5586 22.296 43.3368C23.0741 43.1994 23.3878 43.3737 23.3878 43.9433ZM24.3944 43.4057C24.5281 43.5669 24.5595 43.8894 24.4846 44.3329C24.4214 44.707 24.3986 45.0132 24.4342 45.0132C24.4696 45.0132 24.7879 44.6339 25.1414 44.1703C25.7638 43.354 26.1241 43.1497 26.3359 43.4924C26.4748 43.7171 26.1767 44.2365 25.4424 45.0494L24.8274 45.7302L25.7256 46.5561C26.2957 47.0804 26.5889 47.4727 26.5284 47.6305C26.3677 48.0491 25.9439 47.9112 25.1542 47.1834L24.3993 46.4875V47.28C24.3993 47.9439 24.3514 48.0632 24.1043 48.0159C23.8462 47.9665 23.8032 47.7063 23.7604 45.9384C23.697 43.3085 23.8398 42.7375 24.3944 43.4057ZM33.1265 43.3695C33.2202 43.4855 33.4311 44.1374 33.5951 44.8181C33.8999 46.0834 34.0318 46.1221 34.26 45.0132C34.5215 43.7421 35.1156 42.9683 35.4341 43.4836C35.4872 43.5698 35.6173 44.2525 35.7232 45.0009C35.8291 45.7494 35.9607 46.3615 36.0158 46.361C36.071 46.3605 36.2986 45.7347 36.5216 44.9702C36.9717 43.4275 37.1747 43.0959 37.5331 43.3176C37.8163 43.4925 37.6644 44.1335 36.7848 46.475C36.0199 48.511 35.5234 48.5375 35.2606 46.5559C35.1967 46.0741 35.09 45.6464 35.0234 45.6053C34.9251 45.5446 34.5117 46.6372 34.2428 47.6684C34.1599 47.9865 33.5375 47.9211 33.4426 47.5841C33.3969 47.4219 33.3089 47.0236 33.2472 46.699C33.1853 46.3745 32.98 45.5643 32.7905 44.8986C32.4627 43.7459 32.4668 43.1588 32.8026 43.1588C32.8869 43.1588 33.0326 43.2537 33.1265 43.3695ZM48.0658 43.4991C48.4151 43.8339 48.0087 44.1703 47.2549 44.1703H46.4981L46.6005 45.8517C46.6908 47.3339 46.6691 47.5462 46.4175 47.6428C45.9168 47.8348 45.8862 47.7165 45.8361 45.3925L45.8096 44.1703H45.3158C44.7327 44.1703 44.2013 43.7245 44.4405 43.4359C44.6258 43.2124 47.8249 43.2683 48.0658 43.4991ZM40.3306 43.6434C40.6948 43.7208 40.8522 43.8629 40.893 44.1505C40.9439 44.5096 40.8971 44.5422 40.4294 44.4735L39.9092 44.3972V45.7167C39.9092 46.8951 39.943 47.0362 40.2258 47.0362C40.6238 47.0362 41.0311 47.499 40.8193 47.7107C40.7344 47.7957 40.1344 47.8874 39.4862 47.9144C38.4037 47.9594 38.3076 47.9359 38.3076 47.6263C38.3076 47.4049 38.4379 47.2705 38.6869 47.2351C39.046 47.1842 39.0662 47.1057 39.0662 45.76C39.0662 44.3565 39.061 44.3388 38.6448 44.3388C38.3484 44.3388 38.2233 44.2471 38.2233 44.0298C38.2233 43.8597 38.2739 43.6701 38.3357 43.6084C38.4706 43.4733 39.6266 43.4937 40.3306 43.6434ZM43.0789 43.7316C44.2047 44.3137 44.5887 45.5882 43.8146 46.1722L43.438 46.4563L43.9495 46.9464C44.2308 47.2159 44.4609 47.5384 44.4609 47.663C44.4609 48.0944 43.942 48.098 43.4815 47.6699C43.2321 47.4381 42.8193 47.1161 42.5644 46.9543L42.1008 46.6603V47.3258C42.1008 48.071 42.0082 48.2349 41.6628 48.1023C41.4772 48.031 41.4264 47.5512 41.4264 45.8662C41.4264 44.6861 41.477 43.6701 41.5389 43.6084C41.7317 43.4155 42.6023 43.4851 43.0789 43.7316ZM42.1008 45.0975C42.1008 45.7518 42.1486 45.8561 42.4491 45.8561C42.9315 45.8561 43.4494 45.5538 43.4494 45.2723C43.4494 44.9957 42.6623 44.3388 42.3309 44.3388C42.1706 44.3388 42.1008 44.5688 42.1008 45.0975ZM12.4298 48.5051C12.4298 48.6693 15.0826 49.1599 15.2212 49.0213C15.2654 48.9771 14.7768 48.8544 14.1353 48.7484C13.494 48.6425 12.8479 48.5093 12.6995 48.4523C12.5512 48.3953 12.4298 48.4191 12.4298 48.5051ZM54.8289 48.7221C53.2803 49.0672 53.5325 49.1513 55.26 48.8659C55.9038 48.7597 56.4305 48.6079 56.4305 48.5287C56.4305 48.3571 56.5106 48.3473 54.8289 48.7221ZM16.0543 49.2374C16.9084 49.4141 17.5984 49.4062 16.8973 49.2278C16.6191 49.157 16.1639 49.0988 15.8858 49.0985C15.4606 49.0982 15.4874 49.1203 16.0543 49.2374ZM50.0243 49.4992C48.554 49.7336 48.0501 49.8531 48.7599 49.799C50.1092 49.6963 53.7409 49.0983 52.9745 49.1051C52.6963 49.1074 51.3687 49.2848 50.0243 49.4992ZM17.8698 49.5132C18.0339 49.5561 18.2615 49.5532 18.3756 49.507C18.4897 49.4608 18.3555 49.4259 18.0774 49.4293C17.7992 49.4326 17.7058 49.4704 17.8698 49.5132ZM19.4261 49.7342C20.1076 49.8843 21.3117 49.9558 21.1822 49.8386C21.1436 49.8037 20.5809 49.7326 19.9318 49.6805C19.0248 49.6078 18.9078 49.6203 19.4261 49.7342ZM22.1234 50.077C23.8523 50.3545 29.3475 50.7442 31.1818 50.7193C32.9206 50.6957 32.8318 50.6824 30.1312 50.5627C28.5086 50.4907 26.0521 50.3127 24.6726 50.167C22.0649 49.8917 20.6609 49.8421 22.1234 50.077ZM44.4609 50.1657L42.8594 50.3818L44.4609 50.2899C45.3418 50.2395 46.4039 50.1404 46.8211 50.0699L47.5798 49.9418L46.8211 49.9457C46.4039 49.9477 45.3418 50.0466 44.4609 50.1657ZM38.0547 50.5765L35.7788 50.6758L37.9704 50.6895C39.1758 50.697 40.6931 50.6487 41.3421 50.5821L42.5222 50.461L41.4264 50.4691C40.8237 50.4735 39.3065 50.5219 38.0547 50.5765ZM31.4728 53.7038C31.2941 53.9192 31.303 54.0121 31.5234 54.2326C31.6706 54.3798 31.9106 54.4541 32.0568 54.398C32.4015 54.2658 32.401 53.6771 32.0561 53.5448C31.7033 53.4094 31.7213 53.4043 31.4728 53.7038ZM48.3384 53.5933C47.8915 53.6741 47.82 53.7289 48.0434 53.8187C48.2951 53.9202 48.3384 54.1711 48.3384 55.5304C48.3384 56.6469 48.2754 57.1486 48.1277 57.2083C48.0119 57.255 48.2963 57.2933 48.7599 57.2933C49.2235 57.2933 49.5081 57.255 49.3921 57.2083C49.2415 57.1474 49.1813 56.5973 49.1813 55.2829C49.1813 54.2707 49.1245 53.4524 49.0549 53.4647C48.9853 53.4768 48.6629 53.5348 48.3384 53.5933ZM22.2232 54.1389C21.5632 54.8474 21.8407 55.4279 23.0928 55.9576C23.9485 56.3197 24.1682 56.827 23.5985 57.1255C23.1951 57.3369 22.6646 57.1061 22.2377 56.5336L21.8812 56.0555L21.8759 56.6756L21.8705 57.2956L22.7774 57.4089C24.0687 57.5703 24.7286 57.1936 24.734 56.2924C24.737 55.7627 24.3609 55.4083 23.5024 55.1327C22.7858 54.9024 22.5702 54.5769 22.8839 54.1989C23.2162 53.7985 23.6671 53.9059 24.1323 54.4961L24.5642 55.044L24.566 54.4514L24.5679 53.859L23.5719 53.8096C22.7202 53.7675 22.525 53.815 22.2232 54.1389ZM44.5031 54.0143C44.7437 54.1969 44.7981 54.5047 44.7981 55.6824C44.7981 56.9161 44.7551 57.1378 44.5031 57.2038C44.3409 57.2461 44.7012 57.2808 45.3039 57.2808C45.9066 57.2808 46.2668 57.2461 46.1047 57.2038C45.889 57.1473 45.8096 56.9544 45.8096 56.4868C45.8096 55.8659 45.8299 55.8443 46.4971 55.7548C47.2743 55.6506 47.6813 55.2418 47.6209 54.6264C47.5621 54.0279 46.9375 53.7842 45.4725 53.7875C44.3851 53.7899 44.2494 53.8218 44.5031 54.0143ZM46.6225 54.693C46.6819 55.1905 46.4081 55.6341 46.0419 55.6341C45.8757 55.6341 45.8096 55.3955 45.8096 54.7965C45.8096 53.9991 45.8278 53.9657 46.1889 54.0982C46.4293 54.1864 46.5882 54.4042 46.6225 54.693ZM53.0588 54.5243C53.0588 54.7483 52.964 54.9698 52.8481 55.0167C52.6795 55.0846 52.6795 55.1044 52.8481 55.115C52.9892 55.1239 53.0588 55.4307 53.0588 56.0435C53.0588 57.2666 53.6259 57.8182 54.3876 57.3358C54.5707 57.2198 54.5435 57.1638 54.2611 57.0741C53.9525 56.9762 53.9017 56.8308 53.9017 56.0442C53.9017 55.2099 53.9356 55.1273 54.281 55.1177L54.6604 55.1069L54.281 54.9545C54.062 54.8665 53.9017 54.6571 53.9017 54.4594C53.9017 54.2063 53.7916 54.1168 53.4803 54.1168C53.147 54.1168 53.0588 54.2021 53.0588 54.5243ZM12.7966 54.9697C12.3212 55.1602 12.3637 55.7183 12.8536 55.7183C13.0724 55.7183 13.2071 55.587 13.2423 55.339C13.3027 54.9139 13.446 54.8633 13.7447 55.162C14.0988 55.516 13.9651 55.7706 13.3148 55.9802C12.9672 56.0921 12.5879 56.259 12.4719 56.351C11.8291 56.8612 12.7105 57.722 13.5048 57.36C13.7847 57.2326 13.9592 57.2309 14.0826 57.3543C14.1841 57.4558 14.4614 57.4806 14.7331 57.4125C15.1528 57.3071 15.1723 57.2744 14.9056 57.125C14.6591 56.9871 14.6244 56.8244 14.7139 56.2276C14.8046 55.6224 14.7632 55.4387 14.4695 55.145C14.0969 54.7724 13.4559 54.7053 12.7966 54.9697ZM15.5486 54.9422C15.146 55.0307 15.103 55.077 15.3379 55.1698C15.5685 55.2608 15.6329 55.4869 15.6329 56.2047C15.6329 56.7818 15.5545 57.1549 15.4222 57.2083C15.3063 57.255 15.5149 57.2993 15.8858 57.3069L16.5601 57.3206V56.3509C16.5601 55.4736 16.5962 55.3761 16.9394 55.3272C17.2933 55.277 17.3187 55.3357 17.3187 56.1983C17.3187 56.7804 17.2407 57.1547 17.108 57.2083C16.9922 57.255 17.2766 57.2982 17.7402 57.3041C18.2493 57.3105 18.4956 57.2592 18.3621 57.1746C18.2158 57.0819 18.1588 56.755 18.1935 56.2078C18.2392 55.4876 18.2967 55.3739 18.6409 55.3252C19.0233 55.2711 19.0341 55.3023 18.9781 56.2949L18.9203 57.3206L19.5946 57.3069C19.9655 57.2993 20.1742 57.255 20.0582 57.2083C19.9266 57.1552 19.8475 56.7853 19.8475 56.2221C19.8475 54.9793 19.3431 54.5079 18.4973 54.9606C18.2793 55.0772 18.047 55.0688 17.7498 54.9334C17.4285 54.7871 17.213 54.7852 16.9033 54.9263C16.6427 55.045 16.4505 55.0551 16.3876 54.9533C16.3325 54.8641 16.2349 54.8001 16.1708 54.811C16.1068 54.822 15.8268 54.881 15.5486 54.9422ZM25.6686 55.0196C25.4698 55.1649 25.3965 55.3537 25.4671 55.5378C25.6163 55.9262 26.1695 55.8008 26.1696 55.3785C26.1698 55.1937 26.2831 55.044 26.4225 55.044C26.5776 55.044 26.6752 55.202 26.6752 55.4533C26.6752 55.7597 26.5559 55.8945 26.2008 55.9896C25.2753 56.2371 24.9499 56.8674 25.5086 57.3312C25.7166 57.5037 25.8866 57.5101 26.2833 57.3604C26.6632 57.2169 26.8691 57.2169 27.0989 57.3604C27.3268 57.5028 27.5079 57.5035 27.7993 57.3632C28.1046 57.2164 28.1266 57.1715 27.8975 57.1628C27.6506 57.1532 27.6024 56.9868 27.6024 56.1457C27.6024 55.324 27.5428 55.1082 27.2764 54.9656C26.8209 54.7218 26.0398 54.7481 25.6686 55.0196ZM30.9804 54.9167C30.3601 54.9592 30.138 55.0283 30.3 55.1285C30.5046 55.2549 30.495 55.3721 30.2344 55.9186L29.9284 56.5603L29.5928 55.906C29.3196 55.3736 29.2992 55.2251 29.4833 55.1084C29.6258 55.018 29.4033 54.9639 28.8828 54.9622C28.1084 54.9599 28.0724 54.9784 28.3164 55.2547C28.4597 55.4169 28.7463 55.9481 28.9533 56.4348C29.4618 57.6303 29.7563 57.5841 30.3691 56.2125C30.9923 54.8173 31.3712 54.7867 31.4475 56.1255C31.4824 56.739 31.4276 57.0807 31.2789 57.1749C31.1447 57.2599 31.3853 57.3157 31.8929 57.3174C32.542 57.3194 32.6824 57.2749 32.5251 57.1176C32.4107 57.0031 32.3228 56.4546 32.3228 55.8532C32.3228 55.0993 32.2616 54.8002 32.1121 54.8223C31.9963 54.8395 31.487 54.882 30.9804 54.9167ZM33.3719 55.0536C32.9382 55.3572 32.8854 55.8372 33.2521 56.1415C33.4412 56.2984 33.4594 56.4107 33.3225 56.5756C33.2209 56.6978 33.1843 56.9443 33.2411 57.1233C33.3074 57.332 33.2521 57.4839 33.0865 57.5475C32.3699 57.8226 33.1275 58.5 34.1518 58.5C35.0932 58.5 35.6945 58.1372 35.6945 57.5691C35.6945 57.0803 35.256 56.8141 34.4512 56.8141C34.126 56.8141 33.8131 56.7383 33.7558 56.6456C33.6956 56.5483 33.8539 56.477 34.1297 56.477C34.7855 56.477 35.3574 56.0405 35.3574 55.5401C35.3574 55.3136 35.4523 55.1195 35.5681 55.1089C35.8387 55.084 34.5402 54.8137 34.0884 54.8009C33.9003 54.7955 33.5779 54.9093 33.3719 55.0536ZM36.2846 54.9597C36.0064 55.0305 35.8801 55.0974 36.0039 55.1084C36.173 55.1234 36.2149 55.4014 36.1725 56.2244L36.116 57.3206L36.7819 57.3202C37.2998 57.3199 37.4028 57.2749 37.2455 57.1176C37.0132 56.8853 36.9786 55.8283 37.1924 55.4911C37.2716 55.366 37.4792 55.2908 37.6535 55.324C37.9032 55.3714 37.9815 55.5595 38.0229 56.2093C38.0576 56.7551 38.0004 57.0819 37.8543 57.1746C37.7207 57.2592 37.967 57.3105 38.4762 57.3041C38.9398 57.2982 39.2244 57.255 39.1084 57.2083C38.9767 57.1552 38.8976 56.7853 38.8976 56.2221C38.8976 54.9536 38.3947 54.5071 37.5038 54.9838C37.2335 55.1285 37.1275 55.1285 37.0793 54.9838C37.0091 54.7734 37.0161 54.7736 36.2846 54.9597ZM50.2282 55C49.7683 55.2214 49.8038 55.7183 50.2795 55.7183C50.4983 55.7183 50.633 55.587 50.6683 55.339C50.7286 54.9139 50.8719 54.8633 51.1706 55.162C51.5348 55.5262 51.3844 55.7856 50.6887 55.9941C49.9637 56.2113 49.6217 56.6159 49.7906 57.0562C49.927 57.4118 50.5845 57.5615 51.0098 57.3337C51.2362 57.2127 51.3879 57.2078 51.4569 57.3194C51.5865 57.5293 52.331 57.5426 52.4578 57.3376C52.5092 57.2545 52.433 57.1414 52.2887 57.0859C52.081 57.0063 52.0495 56.8302 52.1376 56.242C52.2309 55.6211 52.1909 55.4405 51.8954 55.145C51.5117 54.7613 50.8441 54.7033 50.2282 55ZM34.4856 55.4488C34.5655 55.9942 34.3996 56.3185 34.0994 56.2032C33.8391 56.1034 33.7362 55.2885 33.9561 55.0686C34.1594 54.8651 34.4283 55.0582 34.4856 55.4488ZM40.114 56.2319C40.6403 57.2365 40.7391 57.5539 40.5833 57.7415C40.4274 57.9295 40.3197 57.9376 40.0676 57.7801C39.8262 57.6294 39.7016 57.6286 39.5538 57.7764C39.2866 58.0436 39.4909 58.5 39.8778 58.5C40.3395 58.5 40.7443 57.9747 41.5127 56.3787L42.196 54.9597L41.6849 54.973C41.4037 54.9803 41.2685 55.0246 41.3843 55.0713C41.6508 55.1789 41.6449 55.6071 41.3698 56.1025C41.1575 56.4847 41.1548 56.4836 40.8672 55.8804C40.7081 55.5467 40.6216 55.2031 40.6749 55.1167C40.7286 55.03 40.4758 54.9597 40.1096 54.9597H39.4472L40.114 56.2319ZM54.9186 55.339C54.9235 55.6904 54.9405 55.6966 55.1479 55.4233C55.3512 55.1556 56.0933 54.9975 56.0933 55.2219C56.0933 55.2733 55.787 55.7664 55.4127 56.3177L54.732 57.3199H56.0028H57.2734L57.2647 56.8563L57.2557 56.3927L56.9912 56.772C56.8219 57.0144 56.5536 57.1513 56.2471 57.1513H55.7674L56.5335 56.0555L57.2996 54.9597H56.1063C54.9798 54.9597 54.9136 54.981 54.9186 55.339ZM42.4379 56.0555C42.4379 56.2428 42.6347 56.3084 43.1966 56.3084C43.7585 56.3084 43.9552 56.2428 43.9552 56.0555C43.9552 55.8682 43.7585 55.8026 43.1966 55.8026C42.6347 55.8026 42.4379 55.8682 42.4379 56.0555ZM13.947 56.4822C13.947 56.8828 13.5005 57.1093 13.2348 56.8436C13.1021 56.711 13.111 56.5876 13.2668 56.3998C13.5721 56.0319 13.947 56.0773 13.947 56.4822ZM26.7595 56.5613C26.7595 56.8703 26.6697 56.9827 26.4223 56.9827C26.0934 56.9827 25.9461 56.5038 26.1976 56.2523C26.4535 55.9963 26.7595 56.1646 26.7595 56.5613ZM51.3729 56.4822C51.3729 56.8828 50.9264 57.1093 50.6607 56.8436C50.528 56.711 50.5369 56.5876 50.6927 56.3998C50.998 56.0319 51.3729 56.0773 51.3729 56.4822ZM34.9458 57.6733C35.0087 57.7749 34.9436 57.9744 34.8015 58.1166C34.4446 58.4734 33.6715 58.2721 33.6715 57.8225C33.6715 57.5542 33.7858 57.4885 34.2516 57.4885C34.5707 57.4885 34.8831 57.5716 34.9458 57.6733Z" fill="black"/>
</svg>
