<svg width="86" height="41" viewBox="0 0 86 41" fill="none" xmlns="http://www.w3.org/2000/svg">
<path d="M17.45 8.32641C17.45 9.37002 16.5627 9.90513 13.3261 10.8136C11.0587 11.4497 8.9503 12.464 8.64179 13.0667C8.01385 14.2959 7.03099 22.0128 7.50262 22.0128C7.66917 22.0128 8.59333 21.7132 9.5564 21.3473C10.8143 20.8688 11.3071 20.1836 11.3071 18.912C11.3071 17.4275 11.0771 17.2159 9.87925 17.596C8.75987 17.9516 8.50187 17.7899 8.68479 16.8473C8.82813 16.1108 10.2383 15.1812 12.3309 14.4454C17.3408 12.6838 17.2234 12.5985 16.4883 17.4746L15.8351 21.8101L9.72635 23.6734C1.77403 26.0999 1.42866 25.8405 2.46817 18.2226C2.92684 14.8665 3.64693 12.3637 4.35746 11.6572C5.2707 10.7501 14.6953 7.30122 16.9381 7.05346C17.22 7.02206 17.45 7.5954 17.45 8.32641Z" fill="black"/>
<path fill-rule="evenodd" clip-rule="evenodd" d="M31.1112 8.03291C31.75 8.80282 31.8155 10.1406 31.3651 13.2503L30.7596 17.4322L25.3607 19.0328C19.5509 20.7555 18.1326 20.4832 18.1326 17.6445C18.1326 15.0815 19.9802 13.324 23.582 12.4599C25.4652 12.0081 27.0057 11.3617 27.0057 11.0238C27.0057 10.2546 26.175 10.245 24.1492 10.9924C23.2803 11.3125 21.703 11.7849 20.6443 12.0408C18.9503 12.451 18.7994 12.3637 19.3898 11.3091C19.7591 10.6498 22.0074 9.43418 24.386 8.60693C29.6826 6.76611 30.0348 6.73608 31.1112 8.03291ZM24.4461 17.1121C22.5759 17.3776 22.337 15.5894 24.1048 14.5594C25.9382 13.4919 26.4378 13.6823 26.2003 15.358C26.0596 16.3449 25.4331 16.9715 24.4461 17.1121Z" fill="black"/>
<path d="M46.4425 8.21788C45.1047 17.951 46.3701 16.7456 33.6605 20.3965C32.9185 20.6095 32.466 20.3685 32.466 19.7597C32.466 19.1468 33.9738 18.3571 36.4944 17.6493C38.7461 17.0179 40.7077 16.0385 40.9412 15.4296C41.2736 14.5642 41.0415 14.4311 39.8136 14.7805C33.6837 16.5251 32.8503 15.8617 33.5369 9.78773C33.9935 5.75662 34.0693 5.63035 36.4398 4.97579C37.7783 4.60585 38.9359 4.37242 39.0123 4.45569C39.0887 4.53965 38.8655 6.4146 38.5154 8.62263C38.1653 10.8307 38.0171 12.7752 38.1857 12.9438C38.3543 13.1124 39.0908 12.9302 39.8218 12.5384C41.1234 11.8422 41.9977 8.7646 42.0141 4.82632C42.0196 3.47419 42.423 2.91929 43.5574 2.70087C47.4752 1.94598 47.3407 1.68866 46.4425 8.21788Z" fill="black"/>
<path fill-rule="evenodd" clip-rule="evenodd" d="M30.4232 20.9944C31.5077 22.3015 30.8402 26.8418 29.4103 27.8875C28.1271 28.826 28.1018 30.0129 29.3154 32.3383C30.2273 34.087 30.1863 34.1518 27.6964 34.8979C26.291 35.319 24.9949 35.6637 24.8161 35.6637C24.6379 35.6637 24.1233 34.4351 23.6735 32.9335C23.2237 31.4319 22.5712 30.2033 22.2237 30.2033C21.8763 30.2033 21.3904 31.7281 21.1426 33.5908C20.731 36.6984 20.499 37.0431 18.3435 37.7543C17.0507 38.1809 15.8747 38.4109 15.7287 38.2655C15.5833 38.1202 15.7614 35.9053 16.1238 33.3444C16.4863 30.7835 16.8282 27.5359 16.8835 26.1278L16.9839 23.5676L22.8476 21.8196C30.0027 19.6874 29.3932 19.7542 30.4232 20.9944ZM23.6509 27.6561C21.5446 28.2069 21.6497 24.9163 23.7636 24.1225C24.8857 23.7014 25.3607 23.8099 25.5279 24.5259C25.8904 26.0828 25.1887 27.2534 23.6509 27.6561Z" fill="black"/>
<path fill-rule="evenodd" clip-rule="evenodd" d="M44.9552 24.2925C44.8795 26.4848 44.4549 28.7147 44.0119 29.2484C42.9833 30.4886 34.1376 33.197 32.7977 32.683C31.6265 32.2332 31.3958 27.2172 32.4216 24.5177C33.1554 22.5882 39.6047 19.9508 43.0455 20.174C45.089 20.3064 45.0931 20.3146 44.9552 24.2925ZM36.5708 28.3721C36.5852 25.3607 37.2841 23.4775 38.5086 23.1526C39.127 22.9881 39.8982 22.8182 40.2224 22.7745C40.6763 22.7138 40.2177 28.8806 39.7392 29.2655C39.6805 29.3126 38.9413 29.5638 38.097 29.8231C36.7551 30.2361 36.5626 30.0525 36.5708 28.3721Z" fill="black"/>
<path d="M59.935 21.5009C59.4183 25.3491 58.6314 28.8492 58.187 29.2798C57.7427 29.7105 54.8282 30.832 51.711 31.7725C46.9039 33.2229 46.0739 33.3198 46.2507 32.4107C46.3749 31.767 47.8997 30.9384 50.0682 30.3351C52.2134 29.7385 53.9682 28.7891 54.3928 27.996C55.0337 26.7988 54.9429 26.7183 53.513 27.2138C52.6359 27.5175 50.8435 27.7769 49.5296 27.7898L47.1407 27.8144L47.2977 23.1076C47.3837 20.518 47.5373 18.3189 47.639 18.2199C47.74 18.1202 48.9331 17.8322 50.2893 17.579L52.7553 17.1183L52.0919 20.9699C51.3561 25.2405 51.5315 25.749 53.5225 25.117C54.6276 24.7662 54.977 23.8502 55.3565 20.3085C55.7756 16.3954 56.0152 15.8631 57.626 15.2727C60.9193 14.0652 60.9302 14.0939 59.935 21.5009Z" fill="black"/>
<path fill-rule="evenodd" clip-rule="evenodd" d="M74.6541 16.0828C74.42 20.7433 74.3524 20.903 72.3799 21.4797C71.2618 21.8067 68.7569 22.5773 66.813 23.1915C62.5628 24.5362 60.8667 23.7444 61.5636 20.7405C62.139 18.2608 63.6965 16.9155 67.1052 15.9525C68.7009 15.5013 70.006 14.8317 70.006 14.4645C70.006 13.799 67.7754 14.1431 64.6719 15.287C62.5219 16.0801 62.3649 16.0385 62.6188 14.7471C62.8597 13.5185 72.3758 10.3297 73.9859 10.9378C74.6575 11.191 74.8322 12.5363 74.6541 16.0828ZM66.6383 20.4771C66.4745 18.6076 66.7345 17.981 67.7877 17.7053C68.445 17.5339 69.2129 17.3578 69.4941 17.3142C70.1459 17.2131 70.1397 18.6997 69.4838 19.7263C68.8962 20.6457 66.7031 21.2245 66.6383 20.4771Z" fill="black"/>
<path d="M83.633 4.09599C83.6193 4.37788 83.1927 7.52578 82.6849 11.0921C82.1771 14.6584 81.8829 17.7817 82.0324 18.0329C82.3361 18.5434 77.5884 20.2675 77.1331 19.8123C76.9748 19.6532 77.2075 16.2712 77.6518 12.2974C78.4559 5.10411 78.4688 5.06794 80.5458 4.39768C83.2637 3.51993 83.6616 3.48102 83.633 4.09599Z" fill="black"/>
</svg>
