<svg width="116" height="41" viewBox="0 0 116 41" fill="none" xmlns="http://www.w3.org/2000/svg">
<path fill-rule="evenodd" clip-rule="evenodd" d="M74.8081 0.0563407C74.3282 0.107667 73.8028 0.24271 73.6407 0.356725C73.4786 0.47074 73.1883 0.56399 72.9955 0.56399C72.8027 0.56399 72.6246 0.625242 72.5998 0.700076C72.5749 0.774911 72.0684 1.03298 71.4741 1.27355C70.281 1.75638 69.819 2.11162 69.5455 2.75601C69.442 3.00023 69.2112 3.24629 69.0094 3.32739C68.2358 3.63835 68.1149 3.73526 67.5738 4.47747C67.2654 4.90075 66.9287 5.31724 66.8258 5.40291C66.7228 5.48872 66.6387 5.69167 66.6387 5.85414C66.6387 6.15805 66.9241 6.30511 67.5209 6.30863C67.6842 6.30968 67.8525 6.40149 67.8951 6.51264C68.0211 6.84253 67.5469 7.08545 66.768 7.08989L66.0518 7.09407L65.6296 7.87742C65.3975 8.30828 65.2076 8.73548 65.2076 8.82677C65.2076 9.09411 67.4626 9.58412 68.5573 9.55461C69.5606 9.52757 69.7083 9.57694 69.5853 9.89835C69.49 10.1479 68.9664 10.3591 68.443 10.3591C67.7957 10.3591 67.5741 10.5608 67.4742 11.2411C67.4241 11.5821 67.3181 11.9043 67.2386 11.957C67.1591 12.0098 66.6769 12.0538 66.1671 12.055C65.6572 12.056 65.0652 12.0921 64.8516 12.1349C64.4716 12.2112 64.4612 12.2344 64.381 13.1863C64.336 13.7216 64.2325 14.2846 64.151 14.4374C63.9737 14.7699 64.0717 17.0967 64.3437 19.018C64.4786 19.97 64.5874 20.3453 64.7687 20.4831C65.0253 20.6782 66.7076 20.7737 68.6146 20.7015C69.1648 20.6807 70.5385 20.7882 71.6672 20.9405C74.1661 21.2777 74.0605 21.3413 74.0414 19.5089C74.0231 17.7444 73.9756 17.6232 73.2684 17.5362C72.9494 17.497 72.5605 17.3941 72.4042 17.3076C72.2478 17.2212 71.9386 17.1504 71.717 17.1504C71.419 17.1504 71.2846 17.0737 71.2016 16.8565C71.1372 16.6881 71.139 16.5098 71.2057 16.4386C71.2699 16.3703 71.3223 16.1542 71.3223 15.9581C71.3223 15.5243 71.6283 15.1914 72.0269 15.1914C72.4626 15.1914 72.8112 14.7373 72.7762 14.215C72.7385 13.6539 72.9128 13.5496 73.4024 13.8399C74.1044 14.2563 74.1083 14.2295 74.1141 8.88867C74.1193 4.08697 74.1233 4.01788 74.4148 3.46988C74.5773 3.16453 74.7529 2.91404 74.8051 2.91325C74.8574 2.91234 75.1395 2.68836 75.4319 2.41553C75.8644 2.01223 75.9798 1.80262 76.0491 1.29418C76.1448 0.594289 76.0582 0.084943 75.8316 0.011806C75.7486 -0.0148367 75.288 0.00514481 74.8081 0.0563407ZM46.408 0.175841C46.1933 0.235004 45.6663 0.371875 45.2367 0.480013C44.5508 0.652538 43.304 1.26454 41.9485 2.09386C41.578 2.32045 41.5482 2.37635 41.7208 2.52014C42.0477 2.79231 41.9553 2.88805 41.202 3.05731C40.6034 3.1917 40.3932 3.32151 39.9335 3.84026C39.1434 4.73188 38.8267 5.17736 38.7763 5.46808C38.7378 5.69011 38.8321 5.73347 39.5126 5.80647C39.942 5.85257 41.2592 5.90024 42.4399 5.91226C43.6206 5.92441 44.8604 5.97952 45.1952 6.03489C45.8949 6.15061 45.9477 6.07603 45.9508 4.96762C45.9534 4.06137 46.2424 3.49835 47.1302 2.66955C47.8492 1.99839 47.9231 1.87823 47.9912 1.27041C48.1204 0.116417 47.6938 -0.178481 46.408 0.175841ZM50.0711 0.256292C49.9547 0.653582 50.0682 1.79687 50.2538 2.09516C50.3487 2.24784 50.6506 2.49911 50.9244 2.65375C51.2545 2.83998 51.5291 3.14585 51.7386 3.56078C52.0541 4.18583 52.0548 4.1955 52.0842 8.9063C52.1188 14.4328 52.0113 14.0533 53.5508 14.0907C54.0737 14.1033 54.7262 14.1882 55.0009 14.2793C55.2757 14.3703 55.9135 14.458 56.4185 14.4742C56.9234 14.4906 57.7553 14.5957 58.2672 14.708C58.779 14.8203 59.3102 14.8828 59.4477 14.8467C59.7281 14.7731 60.6626 15.3152 60.6049 15.5179C60.552 15.7036 57.3644 15.7541 56.7757 15.5785C56.5116 15.4999 55.7102 15.3802 54.9946 15.3128C54.2791 15.2454 53.3582 15.154 52.9484 15.1096C52.2468 15.0336 52.1971 15.0471 52.0995 15.3387C51.9262 15.8564 51.9987 20.1378 52.1838 20.3217C52.2949 20.4322 52.7952 20.4706 53.8227 20.4474C55.0151 20.4205 55.4231 20.3589 55.9288 20.1293C56.4787 19.8796 56.841 19.8379 58.8733 19.7906C60.9367 19.7427 61.218 19.7617 61.4401 19.9633C61.6412 20.146 61.7008 20.1549 61.7483 20.0088C62.0136 19.1925 62.148 13.789 61.9249 12.9058L61.7599 12.2528L60.8492 12.2676C59.7554 12.2852 58.9094 12.4691 58.591 12.7584C58.2975 13.0251 57.3607 13.0406 57.1473 12.7824C57.0614 12.6786 57.0104 12.4588 57.0337 12.2938C57.1067 11.7795 57.6807 11.6218 59.7072 11.5591C61.269 11.5108 61.5679 11.4687 61.6238 11.2897C61.6968 11.0563 61.0365 8.7343 60.7363 8.16814C60.6326 7.9725 60.4185 7.48914 60.2607 7.09407C59.8561 6.08126 59.2264 5.34714 58.6007 5.15895C58.3181 5.07393 57.5263 5.00445 56.8412 5.00445C56.1494 5.00445 55.5597 4.9462 55.5149 4.87358C55.3794 4.65339 56.0593 4.48491 57.1482 4.46885C57.7179 4.46049 58.2097 4.4123 58.2408 4.36176C58.333 4.21209 57.9093 3.67897 57.0609 2.87681C56.4628 2.31144 55.8436 1.91637 54.5693 1.28739C52.7149 0.372005 52.2988 0.233567 51.0072 0.102051C50.234 0.0232982 50.1346 0.039754 50.0711 0.256292ZM78.4625 0.128303C78.3142 0.168005 78.2264 0.404134 78.165 0.927716C78.0921 1.55056 78.115 1.69774 78.3068 1.83853C78.4325 1.93087 78.9653 2.42363 79.4907 2.93376C80.4341 3.8494 80.4534 3.86024 81.0285 3.79521C81.3488 3.75903 81.7156 3.63417 81.8434 3.51794C82.0044 3.37179 82.3212 3.30662 82.8702 3.30662C83.7296 3.30662 83.7006 3.28037 83.8795 4.22084C83.9342 4.50816 84.1327 4.82343 84.414 5.06975C84.7286 5.34506 84.9086 5.65288 85.0199 6.10529L85.1781 6.74902L86.1863 7.05607C86.9662 7.29363 87.1946 7.41744 87.1946 7.60264C87.1946 7.81382 87.0457 7.84986 85.9303 7.9085C84.3572 7.99104 84.0051 7.8816 83.8022 7.24688C83.5195 6.36231 83.4117 6.31046 81.8562 6.31046C80.8953 6.31046 80.4213 6.36127 80.3331 6.47372C79.9771 6.92703 80.0367 10.5775 80.4024 10.7184C80.5082 10.7591 80.982 10.6907 81.4553 10.5662C81.9287 10.4418 82.7549 10.2845 83.2916 10.2169C83.8283 10.1491 84.3707 10.0348 84.497 9.96287C84.8077 9.78591 85.4444 10.121 85.55 10.5171C85.7647 11.3215 85.8823 11.2876 83.0503 11.2394C81.6296 11.2152 80.4001 11.2178 80.3181 11.2452C80.2112 11.281 80.1692 12.2743 80.1692 14.7638V18.2324L80.975 18.1479C81.4183 18.1013 81.8134 18.015 81.8532 17.956C81.9432 17.8223 83.1915 17.4119 83.5112 17.4108C83.6409 17.4103 83.9226 17.3178 84.1372 17.2053C84.3519 17.0927 84.7972 16.9682 85.1271 16.9289C85.6515 16.8662 85.7531 16.8955 85.9402 17.1635C86.2108 17.5515 86.2156 18.2451 85.9494 18.5124C85.7768 18.6856 85.3295 18.7176 83.0839 18.7176H80.4229L80.2847 19.0768C80.1127 19.5234 80.2056 22.2778 80.3948 22.3412C80.4684 22.3657 80.8588 22.5855 81.2621 22.8294C81.6656 23.0732 82.1034 23.307 82.2349 23.3489C82.3664 23.3908 82.5807 23.6625 82.7109 23.9525C82.8413 24.2426 83.0561 24.5381 83.1884 24.6092C83.5812 24.8201 83.3227 24.9865 82.6009 24.9873C81.7279 24.9882 81.0364 25.1854 80.6076 25.5557C80.3106 25.8122 80.2528 25.9899 80.1739 26.8921C80.0815 27.9462 79.8565 28.4969 79.3458 28.9193C78.9253 29.2668 79.1932 29.4452 80.0444 29.3845C80.7436 29.3348 80.8529 29.283 81.3452 28.7686C81.8611 28.2295 81.8994 28.2131 82.3036 28.3599C82.5352 28.4439 83.0859 28.5127 83.5275 28.5127C84.1893 28.5127 84.3587 28.5586 84.4927 28.774C84.5821 28.9176 84.7475 29.0352 84.8603 29.0352C85.1307 29.0352 86.8587 27.2458 87.3747 26.4317C87.5977 26.0799 87.9463 25.5447 88.1496 25.2425C88.5638 24.6268 89.5364 21.7913 89.5364 21.1998C89.5364 20.9889 89.6161 20.5646 89.7134 20.2568C89.9646 19.4623 90.2189 17.386 90.1024 17.0808C90.0485 16.9395 89.8845 16.7232 89.738 16.6002C89.4716 16.3767 89.4718 16.3763 89.8379 16.0766L90.2044 15.7767L90.1443 14.3413C90.0744 12.6731 89.7698 10.7783 89.4033 9.73144C89.2619 9.32749 89.1461 8.82311 89.1461 8.61075C89.1461 8.39852 89.0595 8.1287 88.9537 8.01129C88.8478 7.89388 88.5697 7.44095 88.3357 7.00487C87.3773 5.21903 87.0705 4.79339 85.7635 3.43566C84.6198 2.24758 84.2491 1.9485 83.4867 1.59822C82.9859 1.3681 82.1662 0.988968 81.6653 0.755844C81.1644 0.522589 80.3336 0.266479 79.8189 0.186681C78.8497 0.0363588 78.8117 0.0346611 78.4625 0.128303ZM12.3647 0.498819C12.329 0.534735 10.1383 0.585017 7.49689 0.610484C3.61142 0.647967 2.58232 0.695114 2.10863 0.857321C1.78663 0.967549 1.36211 1.09475 1.16539 1.13981C0.842614 1.21386 0.807617 1.27747 0.807617 1.78825C0.807617 2.33221 0.838321 2.37622 1.58822 2.90424C2.26097 3.37793 2.36935 3.51141 2.37299 3.87004C2.3752 4.09885 2.46302 4.40028 2.56814 4.53964C2.67313 4.67912 2.75913 5.01359 2.75913 5.28289C2.75913 5.55232 2.81117 5.8049 2.87492 5.84448C2.93854 5.88392 3.02337 6.10777 3.06331 6.34194C3.16179 6.91802 3.65722 9.19324 3.74608 9.47769C3.85679 9.83214 4.25373 9.99225 4.61359 9.82757C4.85506 9.71708 5.09457 9.74516 5.7227 9.95765C6.16335 10.1067 6.61649 10.2285 6.72981 10.2285C6.95762 10.2285 7.96056 10.7705 7.96213 10.8943C7.96356 11.0023 7.09904 11.3658 6.44684 11.5314C5.63878 11.7364 5.29974 12.0644 5.33604 12.6056C5.35256 12.8526 5.27762 13.3065 5.16951 13.6144C4.96109 14.2073 4.99283 14.5623 5.32524 15.3546C5.5226 15.8248 5.55591 15.8444 6.16153 15.8444C6.50838 15.8444 6.79226 15.8761 6.79226 15.9149C6.79226 15.9537 6.55808 16.209 6.27186 16.4824C5.70383 17.0249 5.59637 17.523 5.94101 18.0169C6.12588 18.2818 6.30646 18.9933 6.7985 21.395C7.12922 23.0093 7.47438 24.1471 7.87327 24.9371L8.2101 25.6044L9.12744 25.6951C10.1552 25.7969 10.2355 25.915 9.84208 26.747C9.67777 27.0948 9.54168 27.1914 9.12159 27.2588C8.83406 27.3051 8.56931 27.4321 8.52624 27.5446C8.4837 27.6559 8.56957 28.2279 8.7171 28.8156C8.86464 29.4032 9.01829 30.0391 9.05849 30.2287C9.09882 30.4182 9.33924 30.7561 9.59281 30.9797C10.0297 31.3647 10.1105 31.386 11.1361 31.386C11.7313 31.386 12.5707 31.349 13.0015 31.3038L13.7845 31.2217L14.1264 30.0305C14.3144 29.3752 14.585 28.2809 14.7278 27.5985C14.8705 26.9161 15.1144 25.9936 15.2698 25.5485C15.6015 24.598 15.522 24.4107 14.7335 24.2841C14.4526 24.2391 14.1882 24.1458 14.1457 24.0769C14.1033 24.0079 14.486 23.6467 14.9963 23.2741C15.8197 22.6729 15.9164 22.5578 15.8553 22.2516C15.8148 22.0482 15.8948 21.6677 16.0501 21.3243C16.5293 20.2654 16.5401 20.2078 16.3362 19.8131C16.2294 19.6066 16.0551 18.9671 15.9486 18.3919C15.8423 17.8169 15.6132 16.8761 15.4397 16.3015C15.2661 15.7268 15.0628 15.0093 14.9877 14.7071C14.9128 14.4049 14.8091 14.1319 14.7574 14.1005C14.7056 14.0691 14.3121 14.1539 13.8828 14.2889C12.8256 14.6216 11.336 14.627 11.0407 14.2995C10.9223 14.1681 10.8254 13.9964 10.8254 13.9178C10.8254 13.6279 11.4759 13.0114 12.0206 12.7849C13.4712 12.1817 13.8459 11.9867 13.9576 11.7774C14.1486 11.4191 14.0987 11.0715 13.8199 10.8182C13.6084 10.6261 13.4316 10.5992 12.8388 10.6692C12.0461 10.7627 11.6986 10.6432 11.3056 10.1417C11.1735 9.97306 10.947 9.77141 10.8022 9.6937C10.5938 9.58164 8.51037 9.1965 8.05658 9.18605C7.89512 9.18226 7.72326 8.61362 7.82591 8.42321C7.87717 8.32813 8.06074 8.18029 8.23391 8.09474C8.40863 8.00842 8.60391 7.75139 8.673 7.51696C8.74195 7.28305 8.91616 7.05346 9.0633 7.00239C9.20953 6.95172 10.1196 6.90757 11.0856 6.90418L12.842 6.89817L12.7984 6.31046C12.7744 5.98722 12.6783 5.54644 12.5846 5.33095C12.4911 5.11546 12.3824 4.84067 12.3433 4.72039C12.2467 4.42366 12.4529 3.73069 12.8028 3.17602C13.0143 2.84064 13.0812 2.56024 13.0539 2.12298C13.0279 1.70427 13.0778 1.47624 13.2221 1.35609C13.4662 1.15274 13.4883 0.807953 13.2713 0.590109C13.117 0.435216 12.4909 0.372136 12.3647 0.498819ZM29.6705 0.56399C28.2929 0.618712 27.9802 0.669777 27.7515 0.878086C27.2303 1.35269 27.5039 2.24653 28.2776 2.5968C28.8918 2.87486 29.654 3.7525 29.8268 4.38056C30.0576 5.21955 30.1962 5.3081 31.1125 5.20139C31.8518 5.1152 31.9509 5.06727 32.1437 4.70236C32.531 3.96969 33.6192 2.91077 34.2767 2.62684C34.7548 2.42036 34.9716 2.22929 35.1693 1.84023C35.4133 1.3604 35.4165 1.30502 35.2198 1.00346C35.1038 0.825846 34.9392 0.658807 34.854 0.632295C34.5618 0.541396 31.3168 0.498689 29.6705 0.56399ZM93.6977 0.749183C93.2629 1.05074 93.1094 1.44202 93.2325 1.93465C93.2902 2.16556 93.5346 2.37217 94.0718 2.64434C95.2183 3.22539 95.3175 3.4431 95.3547 5.46155C95.3836 7.02812 95.4065 7.16852 95.6513 7.27848C95.8236 7.3558 96.0866 7.34013 96.4019 7.23355C96.6687 7.14344 97.6482 7.01702 98.5784 6.95276C101.273 6.76665 104.36 6.28487 104.553 6.0204C104.786 5.70029 104.655 5.06126 104.323 4.89474C104.152 4.80894 102.746 4.73946 100.703 4.71621C98.8668 4.69518 97.3153 4.6291 97.2558 4.56928C97.0814 4.39401 97.6145 4.09023 98.0967 4.09023C98.341 4.09023 98.8713 4.0073 99.2753 3.90609C99.6791 3.80474 100.536 3.68302 101.18 3.63561C101.824 3.58807 102.556 3.49652 102.807 3.43213C103.057 3.36762 103.496 3.27802 103.782 3.23296C104.572 3.10876 104.628 3.01329 104.628 1.79648C104.628 1.07072 104.574 0.67487 104.466 0.604345C104.281 0.484192 101.656 0.499864 101.535 0.621977C101.491 0.665859 101.672 0.881221 101.937 1.1005C102.202 1.31978 102.388 1.5499 102.35 1.61181C102.311 1.67371 102.015 1.76422 101.691 1.81306C101.192 1.88816 101.055 1.85825 100.801 1.61925C100.637 1.46384 100.274 1.27472 99.9954 1.19911C99.717 1.12336 99.3527 0.934768 99.1859 0.780005C98.8994 0.5141 98.7516 0.498166 96.4863 0.487979C94.2609 0.478054 94.0619 0.49673 93.6977 0.749183ZM107.128 0.64C106.883 0.82023 106.764 2.00622 106.956 2.36538C107.059 2.55945 107.278 2.66106 107.718 2.71892C109.048 2.89366 110.126 3.50344 111.368 4.78229C111.696 5.11977 112.142 5.42355 112.442 5.51366C112.724 5.59855 112.963 5.73908 112.972 5.82593C112.982 5.91291 112.996 6.15727 113.005 6.36923C113.017 6.67993 113.156 6.85037 113.725 7.25079C114.53 7.81721 114.833 7.86632 115.047 7.46485C115.162 7.24923 115.159 7.0195 115.032 6.48991C114.909 5.97312 114.904 5.75201 115.014 5.61932C115.206 5.38685 115.308 2.10156 115.144 1.4095L115.02 0.883833L114.15 0.847525C113.671 0.827543 113.046 0.748399 112.759 0.671605C112.051 0.481449 107.38 0.455329 107.128 0.64ZM19.1844 0.656194C18.8481 0.721234 18.8007 0.892844 19.0885 1.00359C19.4184 1.1308 21.3863 1.31678 22.1142 1.28961C22.8628 1.26179 23.1086 1.11761 22.9802 0.781702C22.9079 0.592461 22.6734 0.566341 21.187 0.581752C20.2465 0.591547 19.3454 0.624981 19.1844 0.656194ZM31.6538 1.74593C32.0469 1.95712 31.8209 2.13069 31.146 2.13578C30.8103 2.13839 30.3893 2.22446 30.2104 2.32711C29.7929 2.56664 29.2997 2.57565 29.2997 2.3437C29.2997 2.10835 30.4174 1.61847 30.9671 1.61311C31.2043 1.61076 31.5134 1.67058 31.6538 1.74593ZM21.6888 2.15237C21.331 2.19991 20.4968 2.24405 19.8349 2.25032C18.4302 2.26377 18.192 2.4073 18.0515 3.32543C17.8866 4.40303 17.5649 5.72367 17.3721 6.11456C17.2656 6.33018 17.1983 6.74132 17.2221 7.02877C17.2608 7.49633 17.3131 7.56659 17.7207 7.69797C18.1726 7.84373 18.2666 7.99196 18.4325 8.81867C18.4873 9.09189 18.6139 9.20277 18.9903 9.30777C19.258 9.38235 19.6635 9.44373 19.8915 9.44412C20.1194 9.44451 20.4707 9.50811 20.6721 9.5853C21.0253 9.7206 21.0293 9.73223 20.7858 9.9118C20.6468 10.0142 20.3375 10.0979 20.0982 10.0979C19.5797 10.0979 19.0783 10.4006 18.8226 10.8682C18.4427 11.5627 18.2378 11.7112 17.365 11.924C16.5597 12.1204 16.4811 12.1698 16.4422 12.5036C16.4188 12.7043 16.4719 13.0435 16.5601 13.2573C16.6483 13.471 16.7869 13.9789 16.8681 14.386C17.0148 15.1222 17.0183 15.1265 17.5465 15.1979C17.8386 15.2375 18.1771 15.3696 18.2988 15.4918C18.4392 15.6327 18.7267 15.7138 19.0861 15.7138C20.0122 15.7138 20.9733 15.9841 20.9733 16.2447C20.9733 16.5474 20.7844 16.6033 19.4093 16.7075C18.3372 16.7888 18.2106 16.8273 17.9949 17.1368C17.647 17.6361 17.6083 17.8319 17.7859 18.1952C17.8737 18.3748 17.9859 18.8388 18.0353 19.2263C18.1685 20.2724 18.5475 20.9258 19.1619 21.168C19.7684 21.4072 19.8109 21.5696 19.2944 21.6733C18.7762 21.7772 18.6938 22.2611 19.0635 23.0275C19.2706 23.4568 19.4347 23.6269 19.6722 23.6589C20.2092 23.731 20.2797 23.9248 19.8267 24.0834C19.328 24.2579 19.299 24.5221 19.6588 25.611C19.7945 26.0218 19.9461 26.6073 19.9954 26.9122C20.0449 27.217 20.1332 27.4963 20.1917 27.5327C20.2504 27.569 20.3388 27.8936 20.3881 28.2538C20.4521 28.7208 20.5542 28.9499 20.7441 29.0519C20.9213 29.1471 21.682 29.1712 23.0205 29.1241C25.1725 29.0485 25.5267 28.9362 25.5268 28.3293C25.5269 28.163 25.7822 27.8349 26.1773 27.4934C26.5888 27.1376 26.8281 26.8258 26.8286 26.6445C26.8292 26.385 27.6326 23.0902 28.016 21.7741C28.2125 21.1002 28.1062 20.8072 27.6655 20.8072C27.4778 20.8072 27.1753 20.6897 26.9934 20.546C26.8114 20.4024 26.5827 20.2848 26.485 20.2848C26.3873 20.2848 26.3074 20.2325 26.3074 20.1683C26.3074 20.0242 26.9263 19.858 27.0887 19.9587C27.1541 19.9993 27.3232 19.96 27.4645 19.8714C27.6627 19.7472 27.7044 19.6189 27.6467 19.3119C27.5173 18.6242 27.3718 18.4564 26.9042 18.4564C26.665 18.4564 26.3989 18.3711 26.3126 18.2668C26.1831 18.1102 26.2348 18.044 26.6094 17.8869C27.3716 17.5672 27.3733 17.2764 26.6258 14.9302C26.0722 13.1929 25.5663 11.147 25.3197 9.64864C25.2139 9.0066 25.0753 8.41824 25.0119 8.34132C24.9482 8.2644 24.777 7.74473 24.6313 7.18641C24.4856 6.62796 24.2776 5.86459 24.1689 5.48989C24.0602 5.1152 23.8776 4.30899 23.7633 3.69843C23.6488 3.08787 23.4682 2.49141 23.3619 2.37308C23.1273 2.11188 22.5579 2.03665 21.6888 2.15237ZM5.97913 6.14669C6.21019 6.45034 6.19106 6.50676 5.72452 6.90091L5.30729 7.25341L5.00897 6.90522C4.65301 6.48991 4.62582 6.11299 4.93832 5.92597C5.22662 5.75345 5.76706 5.86798 5.97913 6.14669ZM29.7955 6.27781C29.5625 6.55077 29.2116 7.9038 28.9655 9.47742C28.8673 10.1059 28.6633 11.0287 28.5121 11.5281C28.1148 12.8415 28.2675 13.0956 29.4573 13.0999C29.9131 13.1016 29.9483 13.0717 30.084 12.5656C30.2649 11.8909 30.1955 11.7112 29.7123 11.6048C28.7746 11.3981 28.7072 10.5895 29.6074 10.3464C30.3254 10.1525 30.886 9.85264 30.798 9.7095C30.7587 9.64564 30.8085 9.39841 30.9087 9.16006C31.1291 8.63557 31.5114 7.08833 31.5114 6.72094C31.5114 6.12645 30.2112 5.7908 29.7955 6.27781ZM37.9997 6.91593C37.6972 7.2632 37.3437 7.99718 37.4196 8.12034C37.4971 8.24624 45.7721 8.23318 45.8976 8.10702C46.0109 7.99327 46.0385 7.00605 45.9313 6.89856C45.8865 6.85364 44.1312 6.78429 42.0307 6.74471C38.4174 6.67654 38.2002 6.68568 37.9997 6.91593ZM113.735 8.90656C113.735 9.07347 114.118 9.36563 114.212 9.27081C114.307 9.17587 114.016 8.7919 113.849 8.7919C113.787 8.7919 113.735 8.84348 113.735 8.90656ZM44.5215 9.30855C44.1995 9.36106 43.778 9.46959 43.5847 9.54952C43.1871 9.71381 43.0118 9.71786 39.7728 9.63806C38.4848 9.6062 37.3014 9.6092 37.143 9.64446C36.9279 9.69239 36.8042 9.87994 36.6551 10.3842C36.3825 11.3052 36.3923 11.7956 36.6829 11.7964C38.237 11.8006 44.2391 11.9612 44.3685 12.002C44.4632 12.0317 44.5218 12.1537 44.4986 12.273C44.4632 12.4551 44.2384 12.4965 43.0904 12.5323C40.6139 12.6095 36.7857 12.8707 36.4914 12.9826C36.0703 13.1428 35.9999 13.5748 35.9999 16.0012C35.9999 17.6122 36.0439 18.2266 36.1684 18.3514C36.2692 18.4525 36.7652 18.5399 37.4041 18.569C38.0268 18.5973 38.5784 18.6928 38.7283 18.7982C38.8695 18.8976 39.1807 18.9788 39.42 18.9788C39.6593 18.9788 39.9828 19.0522 40.1392 19.1419C40.3012 19.2351 41.097 19.3333 41.9901 19.3705L43.5571 19.4359L44.3939 20.1542C44.8542 20.5493 45.3095 20.9461 45.4058 21.0358C45.6633 21.276 45.8093 21.236 45.8835 20.9052C45.9198 20.7435 45.9356 18.0548 45.9185 14.9302L45.8876 9.249L45.4973 9.23098C45.2826 9.22092 44.8435 9.25592 44.5215 9.30855ZM99.8795 9.52771C99.7363 9.55383 98.7512 9.62592 97.6901 9.68808C96.1686 9.77715 95.7152 9.84703 95.544 10.0189C95.3552 10.2084 95.3242 10.6279 95.306 13.2363L95.2851 16.2357L95.6586 16.5027C95.8642 16.6497 96.3287 16.8051 96.6912 16.8482C97.0535 16.8913 97.3878 16.9877 97.4338 17.0624C97.4797 17.1371 97.2618 17.426 96.9493 17.7044L96.3813 18.2104L96.5351 18.9464C96.664 19.5638 96.6576 19.7303 96.4953 19.9791C96.3888 20.1422 96.3017 20.3595 96.3017 20.4622C96.3017 20.6659 96.0311 20.8072 95.6405 20.8072C95.4248 20.8072 95.391 20.9045 95.391 21.5256C95.391 22.1829 95.4158 22.244 95.6837 22.2457C95.8446 22.2466 96.1082 22.2829 96.2694 22.3263C96.5152 22.3924 96.5952 22.3261 96.7659 21.9162L96.9694 21.4275L98.3953 21.4864C99.9191 21.5495 100.291 21.6904 99.9198 22.0634C99.805 22.1787 99.427 22.2999 99.0797 22.3329C98.7325 22.3658 98.2434 22.5001 97.993 22.6311C97.7425 22.7621 97.1964 22.9759 96.7794 23.1061C96.2676 23.2658 95.898 23.4835 95.6426 23.7756L95.2641 24.2082L95.2911 25.9361C95.3267 28.2154 95.2233 28.4996 94.1898 28.9624C93.6292 29.2136 93.4337 29.3665 93.465 29.5299C93.5005 29.7158 93.7699 29.7783 95.0673 29.9013C95.925 29.9825 97.3588 30.1702 98.2532 30.3184C99.1476 30.4665 101.033 30.68 102.443 30.7925C103.852 30.9052 105.098 31.0332 105.212 31.0768C105.552 31.2078 106.583 30.8495 106.793 30.5273C106.965 30.2641 106.965 30.1872 106.79 29.8478C106.595 29.4702 106.575 29.4642 105.253 29.3963C103.924 29.3281 102.937 29.0619 102.937 28.772C102.937 28.4221 103.239 28.1198 103.717 27.9903C104.304 27.8319 104.392 27.6998 104.617 26.6484C104.762 25.9715 104.754 25.8517 104.538 25.4806C104.226 24.9443 103.706 24.8099 102.256 24.8904C101 24.9601 100.509 24.8068 100.912 24.4708C101.069 24.3399 101.411 24.3139 102.258 24.3686C103.518 24.4501 104.469 24.3249 104.645 24.0543C104.709 23.9564 104.746 23.6437 104.727 23.3592C104.699 22.9284 104.639 22.8292 104.369 22.7658C103.934 22.6638 103.886 22.293 104.256 21.8976C104.472 21.6669 104.585 21.3442 104.652 20.7665C104.703 20.3221 104.762 19.8114 104.784 19.6318C104.818 19.345 104.745 19.2792 104.177 19.0904C103.117 18.7373 103.029 18.1144 103.996 17.8017C104.308 17.7009 104.606 17.5572 104.659 17.4824C104.711 17.4076 104.755 16.8708 104.756 16.2897L104.758 15.233L104.01 15.0606C103.599 14.9657 103.213 14.8457 103.154 14.7937C102.964 14.6289 103.626 14.2772 104.125 14.2772C104.581 14.2772 104.609 14.2524 104.674 13.7874C104.78 13.0436 104.71 11.5637 104.563 11.4223C104.48 11.3422 104.083 11.3928 103.457 11.5637C101.903 11.9882 99.9843 12.3338 98.5784 12.4427C97.8629 12.4981 97.0872 12.5882 96.8546 12.6429C96.5166 12.7226 96.4318 12.702 96.4318 12.5399C96.4318 12.2727 97.2989 11.5621 97.7236 11.4815C97.9075 11.4465 98.7515 11.2863 99.5991 11.1254C100.972 10.8649 101.153 10.799 101.258 10.5222C101.425 10.0813 101.41 10.0098 101.091 9.7112C100.825 9.46227 100.506 9.41395 99.8795 9.52771ZM110.93 10.293C110.764 10.6433 110.653 10.7411 110.497 10.6727C109.883 10.4021 109.69 10.5255 109.36 11.4C108.875 12.6884 108.362 13.4021 107.638 13.7979C107.053 14.1176 107 14.1885 106.923 14.7509C106.773 15.8469 106.819 16.2222 107.131 16.466C107.29 16.591 107.778 17.0578 108.215 17.5034C108.92 18.2239 109.04 18.4261 109.301 19.3318C109.707 20.7418 109.922 21.1505 110.35 21.3285C111.077 21.631 111.699 20.8532 111.162 20.3136C111.022 20.1733 110.867 19.7872 110.818 19.4558C110.755 19.0368 110.608 18.7326 110.334 18.4582C110.118 18.2411 109.965 17.9902 109.994 17.9007C110.024 17.8094 110.357 17.7095 110.753 17.6728L111.458 17.6075L111.496 16.3934C111.528 15.3461 111.495 15.11 111.251 14.6746C111.095 14.3969 110.8 14.0452 110.595 13.8931C110.082 13.5118 110.127 13.3021 110.792 12.9786C111.443 12.6624 111.523 12.4463 111.523 11.0117C111.523 9.8849 111.268 9.57616 110.93 10.293ZM88.3385 13.3831C88.4159 13.7878 87.6762 13.8867 85.4648 13.7669C83.5167 13.6614 83.1426 13.5995 83.3284 13.4131C83.5329 13.2078 84.4275 13.127 86.2822 13.1462C88.0433 13.1644 88.3024 13.1942 88.3385 13.3831ZM28.7793 15.2653C28.7793 15.8714 28.9533 16.3668 29.1662 16.3668C29.2309 16.3668 29.3234 16.1015 29.3718 15.7775C29.4202 15.4534 29.5145 15.1543 29.5813 15.1129C29.7808 14.9891 29.4257 14.669 29.0887 14.669C28.8081 14.669 28.7793 14.7245 28.7793 15.2653ZM73.3994 15.657C73.2075 16.0169 73.3018 16.2978 73.6991 16.5494C74.0132 16.7483 74.0845 16.5914 73.9843 15.9217C73.884 15.2501 73.6683 15.1526 73.3994 15.657ZM8.09977 19.1216C8.31249 19.5207 8.14999 20.0236 7.80835 20.0236C7.19713 20.0236 6.80943 19.2645 7.28014 18.9893C7.64195 18.7777 7.94235 18.8263 8.09977 19.1216ZM15.2553 19.0475C15.4663 19.1571 15.6391 19.3192 15.6391 19.4076C15.6391 19.496 15.3611 19.7411 15.0211 19.9522C12.9239 21.2548 13.0495 21.1994 12.2082 21.192C11.2884 21.1838 9.63015 20.7994 9.55651 20.5774C9.49485 20.3918 10.0461 20.1399 12.0613 19.4331C13.7542 18.8393 14.6467 18.7316 15.2553 19.0475ZM52.2951 21.3037C52.095 21.3434 52.0674 21.5207 52.0674 22.7681C52.0674 23.7313 52.1176 24.2186 52.2235 24.2844C52.3094 24.3377 52.851 24.3865 53.4269 24.3929C54.3932 24.4036 54.5185 24.4372 55.0467 24.8261C55.5688 25.2106 55.7032 25.2477 56.5729 25.2477C57.5087 25.2477 57.5281 25.2545 57.6006 25.6069C57.6413 25.8043 57.7364 26.1767 57.812 26.4341C58.0493 27.2428 57.9461 27.4047 57.2038 27.3884C56.8474 27.3806 55.9416 27.2911 55.191 27.1895C54.0072 27.0295 53.8209 26.9707 53.7857 26.7468C53.7056 26.2351 53.4329 25.8724 52.9372 25.6186C52.2006 25.2413 52.0674 25.3502 52.0674 26.33C52.0674 27.8657 51.6538 28.6688 50.2506 29.8576C50.0135 30.0584 49.9793 30.2086 50.0122 30.9024C50.05 31.695 50.0593 31.7135 50.4411 31.7586C50.9125 31.8142 52.4344 31.5596 53.2309 31.2917C54.1839 30.9712 56.0205 29.8532 57.0682 28.9559C57.6093 28.4924 58.052 28.0596 58.052 27.9939C58.052 27.9283 58.402 27.4675 58.8296 26.9698C59.8698 25.7598 61.1298 23.1034 61.0212 22.35C60.9828 22.0843 60.9059 22.0592 60.1047 22.0511C59.5983 22.046 59.1631 21.9748 59.0704 21.8818C58.9699 21.7809 58.5122 21.7215 57.836 21.7215C57.245 21.7215 56.1883 21.6358 55.4877 21.531C54.1538 21.3316 52.6822 21.2267 52.2951 21.3037ZM73.2088 21.5237C73.1372 21.5472 71.4979 21.6342 69.5659 21.7169C67.6339 21.7996 65.8695 21.8946 65.645 21.9282C64.9743 22.0281 64.9946 22.4669 65.7475 24.1376C66.1036 24.9277 66.4515 25.6624 66.5205 25.7701C66.5896 25.8779 66.7469 26.1358 66.8701 26.3432C67.1933 26.8877 68.7124 28.6881 68.9629 28.8238C69.0799 28.8872 69.3612 29.1144 69.5878 29.3289C70.0361 29.7528 70.2014 29.8582 71.1486 30.3239C71.4946 30.4941 71.8655 30.6843 71.9728 30.7464C72.726 31.1833 74.7584 31.7778 75.4988 31.7778C75.9201 31.7778 76.136 31.4744 76.136 30.8829C76.136 30.2646 76.0136 30.0921 75.471 29.9454C75.0221 29.8241 74.972 29.7715 75.0412 29.4945C75.0984 29.2659 75.0139 29.0461 74.7299 28.6836C74.2973 28.1315 74.2116 27.7421 74.1027 25.8354C74.0617 25.1171 73.9839 24.482 73.9299 24.4241C73.8759 24.3663 72.9713 24.3117 71.9197 24.3029C69.8691 24.286 69.4342 24.1729 69.7061 23.7275C69.9028 23.405 70.3943 23.2968 72.0379 23.2137C74.1092 23.1091 74.0544 23.1299 74.0544 22.448C74.0544 22.1319 74.0189 21.7805 73.9755 21.6669C73.9039 21.4797 73.5455 21.4128 73.2088 21.5237ZM36.7719 21.8928C36.7336 21.9932 36.8514 22.4146 37.0341 22.829C37.2166 23.2434 37.366 23.6487 37.366 23.7299C37.366 23.8588 38.0239 25.2282 38.5085 26.108C38.8049 26.6461 39.3098 26.9455 39.9205 26.9455C40.2329 26.9455 40.4884 27.0022 40.4884 27.0716C40.4884 27.2681 40.9582 27.4741 42.0348 27.7498C42.5796 27.8893 43.3766 28.0929 43.806 28.2022C44.2353 28.3114 44.85 28.4469 45.172 28.5032C45.494 28.5594 45.9124 28.6691 46.1019 28.7467C46.2913 28.8244 46.4768 28.8573 46.514 28.8199C46.5512 28.7826 46.4099 28.3896 46.2001 27.9467L45.8185 27.1414L45.8966 25.1048C45.9923 22.6089 46.009 22.6393 44.5448 22.6278C43.9953 22.6237 43.253 22.5642 42.8953 22.4959C42.5375 22.4276 41.7315 22.2871 41.1043 22.1837C40.4771 22.0802 39.9024 21.9575 39.8274 21.9108C39.7523 21.8643 39.0499 21.8001 38.2663 21.7682C37.1268 21.7219 36.8277 21.7468 36.7719 21.8928ZM95.5211 22.6357C95.5211 22.7075 95.5796 22.7663 95.6512 22.7663C95.7227 22.7663 95.7813 22.7075 95.7813 22.6357C95.7813 22.5638 95.7227 22.5051 95.6512 22.5051C95.5796 22.5051 95.5211 22.5638 95.5211 22.6357ZM97.6027 26.9455C97.6027 27.0174 97.5441 27.0761 97.4726 27.0761C97.401 27.0761 97.3425 27.0174 97.3425 26.9455C97.3425 26.8737 97.401 26.8149 97.4726 26.8149C97.5441 26.8149 97.6027 26.8737 97.6027 26.9455ZM78.2913 30.1698C78.1937 30.425 78.1971 31.3109 78.2966 31.5712C78.465 32.0116 80.239 31.7023 81.8605 30.9499C82.3971 30.7008 82.9501 30.4104 83.089 30.3045C83.3319 30.1194 83.3268 30.109 82.9589 30.0392C82.7484 29.9993 81.6285 29.969 80.4705 29.9718C78.7378 29.9761 78.3519 30.0113 78.2913 30.1698ZM42.8313 30.1779C42.8327 30.3063 44.2631 31.0472 45.172 31.3903C45.5656 31.5388 46.3027 31.6946 46.8103 31.7364C47.6031 31.8017 47.745 31.7811 47.8181 31.5897C48.0221 31.056 47.4831 30.749 45.9526 30.5273C45.6306 30.4807 45.1698 30.361 44.9285 30.2612C44.4713 30.0724 42.8294 30.0071 42.8313 30.1779ZM21.2335 30.9645C21.2335 31.1555 21.3383 31.2547 21.5912 31.3033C22.0537 31.3921 24.852 31.3233 24.9543 31.2206C25.158 31.0163 24.7942 30.8551 24.1822 30.8787C23.8126 30.893 22.998 30.8573 22.3718 30.7996C21.2739 30.6982 21.2335 30.7041 21.2335 30.9645ZM77.1768 35.2881C77.1768 35.351 77.2647 35.4758 77.372 35.5652C77.5319 35.6985 77.5672 36.1413 77.5672 38.0156C77.5672 39.9925 77.5379 40.3249 77.3521 40.4612C76.9524 40.7547 77.2904 40.9199 78.2904 40.9199H79.2585V38.0467V35.1734H78.2177C77.6452 35.1734 77.1768 35.225 77.1768 35.2881ZM79.6488 35.2878C79.6488 35.3686 79.7659 35.5522 79.909 35.6958C80.2929 36.0812 80.2778 37.2819 79.8844 37.6498L79.5997 37.9161L79.8844 38.1824C80.2856 38.5576 80.3021 40.0245 79.909 40.3625C79.3318 40.8585 79.8006 41.0757 80.8293 40.7888C81.9856 40.4663 82.3227 39.1333 81.4537 38.3204C81.2926 38.1698 81.0549 38.0467 80.9252 38.0467C80.7956 38.0467 80.6896 37.9879 80.6896 37.9161C80.6896 37.8442 80.7819 37.7855 80.8947 37.7855C81.0075 37.7855 81.271 37.6137 81.4802 37.4037C81.9949 36.8871 81.9993 36.2476 81.492 35.6778C81.1801 35.3273 81.0107 35.2544 80.3862 35.2024C79.8909 35.1613 79.6488 35.1892 79.6488 35.2878ZM84.5926 35.3554C84.5926 35.4554 84.6804 35.5711 84.7878 35.6125C84.951 35.6753 84.9829 36.0645 84.9829 37.9955C84.9829 39.9911 84.9538 40.3248 84.7678 40.4612C84.3682 40.7547 84.7062 40.9199 85.7061 40.9199H86.6742V38.0467V35.1734H85.6334C84.8306 35.1734 84.5926 35.215 84.5926 35.3554ZM87.0645 35.3632C87.0645 35.4675 87.2595 35.6458 87.4979 35.7594C87.7513 35.8801 88.0205 36.1539 88.1463 36.4186C88.471 37.1022 88.6257 36.9743 88.6257 36.0223V35.1734H87.8451C87.2491 35.1734 87.0645 35.2184 87.0645 35.3632ZM91.3578 35.3554C91.3578 35.4554 91.4457 35.5711 91.553 35.6125C91.8521 35.7277 91.8405 40.0786 91.5402 40.4116C91.186 40.8047 91.4414 40.9199 92.6665 40.9199C93.743 40.9199 93.8298 40.9004 93.8298 40.6587C93.8298 40.5136 93.743 40.3975 93.6346 40.3975C93.4677 40.3975 93.4395 40.0202 93.4395 37.7855V35.1734H92.3987C91.5958 35.1734 91.3578 35.215 91.3578 35.3554ZM93.7501 35.3277C93.6947 35.4177 93.7728 35.5601 93.9376 35.6701C94.181 35.8323 94.2201 35.98 94.2201 36.7407C94.2201 37.3656 94.1631 37.6703 94.0249 37.7855C93.9176 37.8749 93.8298 38.0522 93.8298 38.1792C93.8298 38.3064 93.9176 38.4444 94.0249 38.4858C94.167 38.5405 94.2206 38.7664 94.2219 39.316C94.2228 39.7312 94.2579 40.1992 94.2998 40.3561C94.3957 40.7154 95.1667 41.0966 95.557 40.9779C95.9676 40.853 96.4318 40.3944 96.4318 40.1136C96.4318 39.8384 96.2915 39.8069 96.0675 40.0318C95.9461 40.1537 95.9114 40.0363 95.9114 39.5035C95.9114 38.9503 95.85 38.7567 95.592 38.4979C95.4163 38.3216 95.1822 38.1773 95.0716 38.1773C94.7587 38.1773 94.8419 38.0058 95.2938 37.7202C96.0999 37.2104 96.0874 36.0226 95.27 35.4696C94.7964 35.1493 93.9109 35.0665 93.7501 35.3277ZM98.9737 35.2961C98.9322 35.3635 99.0019 35.4767 99.1286 35.5477C99.332 35.6619 99.3639 35.9325 99.4004 37.8506C99.4358 39.7039 99.41 40.0732 99.2257 40.3554C98.9183 40.8264 99.1121 40.939 100.153 40.8937L101.05 40.8546L101.086 38.27C101.115 36.1326 101.154 35.6727 101.313 35.6113C101.419 35.5706 101.506 35.4554 101.506 35.3554C101.506 35.2127 101.241 35.1734 100.277 35.1734C99.6018 35.1734 99.0152 35.2285 98.9737 35.2961ZM105.279 35.3554C105.279 35.4554 105.366 35.5711 105.474 35.6125C105.637 35.6753 105.669 36.0645 105.669 37.9955C105.669 39.9911 105.64 40.3248 105.454 40.4612C105.039 40.7658 105.395 40.9199 106.515 40.9199C107.634 40.9199 107.99 40.7658 107.575 40.4612C107.389 40.3248 107.36 39.9911 107.36 37.9955C107.36 36.0645 107.392 35.6753 107.555 35.6125C107.663 35.5711 107.751 35.4554 107.751 35.3554C107.751 35.2126 107.484 35.1734 106.515 35.1734C105.545 35.1734 105.279 35.2126 105.279 35.3554ZM110.483 35.2958C110.483 35.3632 110.637 35.5835 110.827 35.7856C111.016 35.9876 111.734 37.2108 112.423 38.5038L113.675 40.8546H114.193H114.711L114.7 39.8751C114.689 38.9081 114.676 38.8717 113.68 37.0345L112.671 35.1734H111.577C110.975 35.1734 110.483 35.2285 110.483 35.2958ZM113.735 35.263C113.735 35.3123 113.867 35.4933 114.028 35.6651C114.262 35.9154 114.324 36.1411 114.336 36.7934C114.345 37.242 114.433 37.7515 114.532 37.9257C114.696 38.2165 114.716 38.1419 114.776 37.0235C114.827 36.064 114.89 35.7691 115.069 35.6379C115.501 35.3211 115.325 35.1734 114.516 35.1734C114.086 35.1734 113.735 35.2137 113.735 35.263ZM87.5849 37.0575C87.5849 37.172 87.4678 37.3662 87.3247 37.4893C87.1816 37.6123 87.0645 37.7934 87.0645 37.8919C87.0645 37.9902 87.1816 38.2202 87.3247 38.4028C87.4678 38.5855 87.5849 38.8201 87.5849 38.924C87.5849 39.0281 87.6582 39.0887 87.7475 39.0588C87.8592 39.0215 87.9102 38.6837 87.9102 37.9814C87.9102 37.279 87.8592 36.9413 87.7475 36.9039C87.6582 36.874 87.5849 36.9431 87.5849 37.0575ZM111.007 38.4301C111.003 39.8982 110.977 40.0822 110.729 40.3468C110.579 40.5077 110.494 40.7025 110.542 40.7796C110.648 40.9518 111.869 40.9672 111.974 40.7978C112.015 40.7305 111.901 40.5276 111.721 40.3466C111.413 40.0373 111.393 39.9363 111.393 38.6653C111.393 37.6785 111.342 37.2445 111.202 37.0595C111.031 36.8321 111.011 36.9735 111.007 38.4301ZM102.371 39.5161C102.236 39.8695 102.008 40.168 101.759 40.3156C101.188 40.6543 101.34 40.8546 102.167 40.8546H102.872V39.9512C102.872 38.881 102.677 38.7116 102.371 39.5161ZM88.1944 39.553C88.074 39.8068 87.7678 40.1373 87.5144 40.2874C86.8709 40.6686 87.0043 40.8546 87.921 40.8546H88.6908L88.7087 40.3322C88.7301 39.7081 88.6281 39.0915 88.5034 39.0915C88.4541 39.0915 88.315 39.2991 88.1944 39.553Z" fill="black"/>
</svg>
