<svg width="119" height="41" viewBox="0 0 119 41" fill="none" xmlns="http://www.w3.org/2000/svg">
<path fill-rule="evenodd" clip-rule="evenodd" d="M33.6206 0.151365C33.434 0.219885 32.6328 0.442742 31.8398 0.646603L30.3981 1.01701V4.90497V8.79259H26.3277H22.2572V10.4886V12.1846H26.3277H30.3981V19.8167V27.4488H32.4334H34.4686V19.8167V12.1846H38.539H42.6095V10.4886V8.79259H38.539H34.4686V4.38293C34.4686 1.95763 34.3539 -0.0145054 34.2142 8.03887e-05C34.0744 0.0146662 33.8071 0.0828461 33.6206 0.151365ZM0.208984 18.1075V27.4488H2.07461H3.94023V21.1169C3.94023 17.6346 4.05454 14.8996 4.19429 15.039C4.33404 15.1788 5.38354 17.9901 6.52632 21.2861L8.60462 27.2792L10.2606 27.3789L11.9163 27.4787L14.1187 21.1115L16.3212 14.7443L16.4134 21.0965L16.5057 27.4488H22.6039H28.7021V25.7528V24.0568H24.6317H20.5612V21.8648V19.6726L23.6989 19.5752L26.8365 19.4775L26.94 17.8663L27.0434 16.2551H23.8023H20.5612V12.5238V8.79259H17.5667H14.5722L12.5842 15.0716C11.4906 18.525 10.4808 21.2342 10.34 21.0925C10.1992 20.9503 9.18127 18.1631 8.07818 14.8983L6.07213 8.96219L3.14039 8.86416L0.208984 8.76613V18.1075ZM44.3055 10.4438V12.0954L45.6888 12.281C48.1226 12.6073 49.1063 14.3833 47.8478 16.1794C47.3658 16.868 47.0422 16.9335 44.1166 16.9335H40.9135V15.54C40.9135 14.2667 40.8477 14.1622 40.1503 14.3294C39.7307 14.4302 38.8148 14.6164 38.115 14.7432L36.843 14.9739V21.2112V27.4488H38.8782H40.9135V23.8872V20.3255H43.6495C45.1542 20.3255 46.6647 20.4751 47.0059 20.6576C47.8841 21.1277 48.376 22.7919 48.376 25.2945V27.4488H50.4112H52.4464L52.4444 26.0072C52.4403 22.8614 51.8399 20.5433 50.7819 19.5867L49.7769 18.6787L50.6313 18.119C51.6822 17.4301 52.4464 15.6842 52.4464 13.9712C52.4464 10.9143 49.9231 8.79259 46.2875 8.79259H44.3055V10.4438ZM54.4816 18.1064V27.4488H61.9441H69.4066V20.7977V14.1462L68.5189 14.3691C68.0308 14.4916 67.1913 14.6798 66.6533 14.7873L65.6754 14.9831V19.5199V24.0568H61.9441H58.2129V18.1207V12.1846L69.1522 12.2036C76.6968 12.2169 80.4572 12.3485 81.2699 12.6276C83.3547 13.344 84.0012 16.0967 82.4955 17.8473C81.737 18.7289 81.4633 18.8079 78.7819 18.9178L75.8874 19.0369L75.7846 17.0732L75.6819 15.1092L73.9859 14.6713C73.053 14.4302 72.1735 14.23 72.0314 14.2263C71.8892 14.2229 71.8129 20.0474 71.8618 27.17L71.9506 40.1204L72.7986 40.3433C73.265 40.4661 74.1429 40.6638 74.7491 40.7832L75.8515 41V31.6804V22.3607H78.8324C83.645 22.3607 86.0042 20.7041 86.4984 16.9779C86.9516 13.5625 85.9611 11.0154 83.6521 9.65891C82.5155 8.99136 81.8822 8.95812 68.4738 8.86314L54.4816 8.76443V18.1064ZM88.0628 18.1207V27.4488H95.6949H103.327V18.1207V8.79259H95.6949H88.0628V18.1207ZM105.701 18.1526V27.4488H112.316H118.93V25.7528V24.0568H114.351H109.772V16.9467V9.83632L108.5 9.51984C107.8 9.34583 106.885 9.12535 106.465 9.02969L105.701 8.85602V18.1526ZM99.5958 18.1207V24.0568H95.6949H91.7941V18.3469C91.7941 15.2063 91.8958 12.535 92.0203 12.4109C92.1445 12.2864 93.8998 12.1846 95.9212 12.1846H99.5958V18.1207ZM0.208984 31.3496V33.2153H34.8078H69.4066V31.3496V29.484H34.8078H0.208984V31.3496ZM78.1184 29.7045C77.9908 29.8321 77.8867 30.674 77.8867 31.5759V33.2153H86.8932H95.9001L95.7973 31.4344L95.6949 29.6536L87.0225 29.5631C82.2526 29.5135 78.2459 29.577 78.1184 29.7045ZM98.2389 31.3496C98.2389 33.1681 98.263 33.2153 99.1918 33.2153C100.732 33.2153 101.317 32.5671 101.079 31.1244C100.874 29.8863 100.344 29.5003 98.8325 29.4888C98.3387 29.4847 98.2389 29.7971 98.2389 31.3496ZM102.309 31.3496V33.2153H103.666C104.412 33.2153 105.023 33.0626 105.023 32.8761C105.023 32.6895 104.565 32.5369 104.005 32.5369C102.663 32.5369 102.582 31.5338 103.921 31.4853C104.797 31.4538 104.806 31.4385 104.07 31.2309C102.969 30.9209 102.98 30.3524 104.09 30.2248C105.525 30.0597 105.195 29.484 103.666 29.484H102.309V31.3496ZM106.267 29.7103C105.882 30.0949 106.011 33.2153 106.412 33.2153C106.616 33.2153 106.863 32.91 106.96 32.5369C107.058 32.1637 107.363 31.8585 107.638 31.8585C107.914 31.8585 108.219 32.1637 108.317 32.5369C108.414 32.91 108.621 33.2153 108.776 33.2153C109.159 33.2153 109.057 30.4372 108.655 29.908C108.315 29.4616 106.653 29.3239 106.267 29.7103ZM110.45 31.3296V33.2153H111.637C112.29 33.2153 112.825 33.0626 112.825 32.8761C112.825 32.6895 112.443 32.5369 111.977 32.5369C111.216 32.5369 111.129 32.3998 111.129 31.2001C111.129 30.4647 110.976 29.769 110.789 29.6536C110.579 29.5234 110.45 30.159 110.45 31.3296ZM113.842 31.3496C113.842 32.3757 113.995 33.2153 114.182 33.2153C114.368 33.2153 114.521 32.3757 114.521 31.3496C114.521 30.3236 114.368 29.484 114.182 29.484C113.995 29.484 113.842 30.3236 113.842 31.3496ZM115.878 31.3496C115.878 32.3757 116.03 33.2153 116.217 33.2153C116.403 33.2153 116.56 32.719 116.565 32.1129L116.574 31.0104L117.498 32.1159C118.006 32.7238 118.536 33.22 118.676 33.2183C118.816 33.2166 118.93 32.3757 118.93 31.3496C118.93 30.3236 118.778 29.484 118.591 29.484C118.405 29.484 118.248 29.9803 118.243 30.5864L118.234 31.6889L117.31 30.5834C116.802 29.9755 116.272 29.4793 116.132 29.481C115.992 29.4827 115.878 30.3236 115.878 31.3496ZM99.9529 30.6712C99.9261 31.1746 99.1673 31.0824 98.9913 30.5539C98.8963 30.2686 99.0513 30.1417 99.4051 30.2147C99.7162 30.2795 99.9628 30.4847 99.9529 30.6712ZM108.179 30.6665C108.215 30.8507 107.978 31.0525 107.652 31.1156C107.28 31.1868 107.058 31.0206 107.058 30.6712C107.058 30.081 108.061 30.077 108.179 30.6665ZM100.274 32.0281C100.274 32.3106 99.9726 32.5369 99.5958 32.5369C99.2189 32.5369 98.9173 32.3106 98.9173 32.0281C98.9173 31.7455 99.2189 31.5193 99.5958 31.5193C99.9726 31.5193 100.274 31.7455 100.274 32.0281Z" fill="black"/>
</svg>
